<svg xmlns="http://www.w3.org/2000/svg" viewBox="0 0 64 64"><path fill="#85cbf8" d="M11.27,40H3.62C2.173,40,1,38.799,1,37.317v-0.634C1,35.201,2.173,34,3.62,34h7.65 c1.447,0,2.62,1.201,2.62,2.683v0.634C13.891,38.799,12.718,40,11.27,40z"/><path fill="#8d6c9f" d="M11.271,41H3.62C1.624,41,0,39.348,0,37.317v-0.634C0,34.652,1.624,33,3.62,33h7.65 c1.996,0,3.62,1.652,3.62,3.683v0.634C14.891,39.348,13.267,41,11.271,41z M3.62,35C2.727,35,2,35.755,2,36.683v0.634 C2,38.245,2.727,39,3.62,39h7.65c0.894,0,1.62-0.755,1.62-1.683v-0.634c0-0.928-0.727-1.683-1.62-1.683H3.62z"/><path fill="#85cbf8" d="M60.49,40h-7.65c-1.447,0-2.62-1.201-2.62-2.683v-0.634c0-1.482,1.173-2.683,2.62-2.683h7.65 c1.447,0,2.62,1.201,2.62,2.683v0.634C63.11,38.799,61.937,40,60.49,40z"/><path fill="#8d6c9f" d="M60.49,41h-7.65c-1.996,0-3.62-1.652-3.62-3.683v-0.634c0-2.031,1.624-3.683,3.62-3.683h7.65 c1.996,0,3.62,1.652,3.62,3.683v0.634C64.11,39.348,62.486,41,60.49,41z M52.84,35c-0.894,0-1.62,0.755-1.62,1.683v0.634 c0,0.928,0.727,1.683,1.62,1.683h7.65c0.894,0,1.62-0.755,1.62-1.683v-0.634c0-0.928-0.727-1.683-1.62-1.683H52.84z"/><path fill="#efd8be" d="M51.626,46.271V29.376h3.966c1.879,0,3.408,1.583,3.408,3.529v9.836 c0,1.946-1.528,3.529-3.408,3.529H51.626z"/><path fill="#8d6c9f" d="M55.592,47h-4.966V28h4.966C58.023,28,60,30.043,60,32.554v9.891C60,44.957,58.023,47,55.592,47z M52.626,44.989h2.966c1.328,0,2.408-1.141,2.408-2.543v-9.891c0-1.402-1.08-2.543-2.408-2.543h-2.966V44.989z"/><path fill="#efd8be" d="M22.367,18.498C22.782,14.297,26.443,11,30.883,11h2.344c4.44,0,8.101,3.296,8.516,7.498H22.367z"/><path fill="#8d6c9f" d="M42.847,19.498H21.264l0.108-1.098c0.473-4.789,4.562-8.4,9.511-8.4h2.344 c4.95,0,9.039,3.611,9.511,8.4L42.847,19.498z M23.558,17.498h16.996C39.724,14.297,36.752,12,33.227,12h-2.344 C27.359,12,24.387,14.297,23.558,17.498z"/><path fill="#efd8be" d="M8.459,46.271C6.551,46.271,5,44.688,5,42.741v-9.836c0-1.946,1.551-3.529,3.459-3.529h4.026 v16.895L8.459,46.271z"/><path fill="#8d6c9f" d="M13.484,47H8.459C6,47,4,44.957,4,42.446v-9.891C4,30.043,6,28,8.459,28h5.025V47z M8.459,30.011 C7.103,30.011,6,31.152,6,32.554v9.891c0,1.402,1.103,2.543,2.459,2.543h3.025V30.011H8.459z"/><path fill="#faefde" d="M17.966,59C13.574,59,10,55.427,10,51.035V24.611c0-4.392,3.574-7.965,7.966-7.965h28.741 c4.392,0,7.966,3.573,7.966,7.965v26.424c0,4.392-3.574,7.965-7.966,7.965H17.966z"/><polygon fill="#efd8be" points="51,58 13,58 10,54 54,54"/><path fill="#8d6c9f" d="M46.154,60H17.846C12.968,60,9,56.011,9,51.107V24.893C9,19.989,12.968,16,17.846,16h28.309 C51.032,16,55,19.989,55,24.893v26.213C55,56.011,51.032,60,46.154,60z M17.846,17.984c-3.775,0-6.846,3.1-6.846,6.909v26.213 c0,3.81,3.071,6.909,6.846,6.909h28.309c3.775,0,6.846-3.1,6.846-6.909V24.893c0-3.81-3.071-6.909-6.846-6.909H17.846z"/><polygon fill="#72caaf" points="36.93,49 32.009,44.098 27.085,48.999 22.155,44.096 18.453,47.777 16,45.125 22.155,39.002 27.084,43.903 32.009,39 36.93,43.902 41.851,39 48,45.125 45.544,47.777 41.851,44.098"/><path fill="#8d6c9f" d="M36.93,50c-0.255,0-0.511-0.097-0.706-0.292l-4.216-4.199l-4.217,4.198 c-0.39,0.387-1.021,0.388-1.411,0l-4.226-4.202l-2.996,2.98c-0.192,0.191-0.435,0.28-0.726,0.291 c-0.271-0.006-0.529-0.122-0.713-0.321l-2.454-2.652c-0.366-0.395-0.353-1.009,0.029-1.388l6.155-6.123 c0.39-0.388,1.02-0.388,1.41,0l4.224,4.199l4.219-4.201c0.39-0.389,1.021-0.389,1.411,0l4.216,4.199l4.215-4.199 c0.39-0.389,1.021-0.389,1.411,0l6.149,6.125c0.381,0.38,0.394,0.993,0.028,1.388l-2.456,2.652 c-0.185,0.199-0.442,0.314-0.714,0.32c-0.279-0.007-0.533-0.1-0.726-0.292l-2.987-2.976l-4.215,4.199 C37.441,49.903,37.186,50,36.93,50z M32.009,43.098c0.255,0,0.511,0.097,0.706,0.292l4.216,4.199l4.215-4.199 c0.39-0.389,1.021-0.389,1.411,0l2.958,2.947l1.096-1.184l-4.76-4.741l-4.215,4.199c-0.39,0.389-1.021,0.389-1.411,0 l-4.216-4.199l-4.219,4.201c-0.389,0.388-1.02,0.389-1.411,0l-4.225-4.2l-4.766,4.741l1.094,1.183l2.966-2.95 c0.39-0.388,1.021-0.388,1.41,0l4.225,4.201l4.218-4.199C31.499,43.195,31.753,43.098,32.009,43.098z"/><ellipse cx="41.492" cy="28.5" fill="#72caaf" rx="5.508" ry="5.5"/><path fill="#8d6c9f" d="M41.493,35c-3.588,0-6.508-2.916-6.508-6.5c0-3.392,2.548-6.175,5.927-6.475 c0.567-0.037,1.036,0.358,1.084,0.908c0.049,0.55-0.358,1.036-0.908,1.084c-2.301,0.204-4.104,2.173-4.104,4.482 c0,2.481,2.022,4.5,4.508,4.5c2.008,0,3.792-1.346,4.337-3.272c0.151-0.532,0.704-0.839,1.235-0.689 c0.531,0.15,0.84,0.703,0.69,1.234C46.966,33.056,44.391,35,41.493,35z"/><path fill="#8d6c9f" d="M46.4,27c-0.364,0-0.714-0.199-0.891-0.544c-0.281-0.549-0.667-1.029-1.146-1.424 c-0.426-0.352-0.485-0.982-0.134-1.408c0.352-0.426,0.982-0.485,1.408-0.134c0.69,0.57,1.246,1.262,1.652,2.055 c0.251,0.491,0.057,1.094-0.435,1.346C46.709,26.964,46.554,27,46.4,27z"/><path fill="#72caaf" d="M28.749,24.196l-1.96-1.963c-0.334-0.335-0.877-0.335-1.213,0L23,24.813l-2.576-2.58 c-0.334-0.335-0.877-0.335-1.213,0l-1.96,1.963c-0.334,0.335-0.334,0.879,0,1.215l2.576,2.58l-2.576,2.58 c-0.334,0.335-0.334,0.879,0,1.215l1.96,1.963c0.334,0.335,0.877,0.335,1.213,0L23,31.169l2.576,2.58 c0.334,0.335,0.877,0.335,1.213,0l1.96-1.963c0.334-0.335,0.334-0.879,0-1.215l-2.576-2.58l2.576-2.58 C29.084,25.075,29.084,24.531,28.749,24.196z"/><path fill="#8d6c9f" d="M19.816,34.999c-0.476,0-0.951-0.181-1.312-0.542l-1.96-1.964c-0.724-0.727-0.723-1.905,0-2.628 l1.87-1.873l-1.871-1.874c-0.723-0.726-0.723-1.904,0-2.628l1.96-1.963c0.704-0.703,1.927-0.702,2.628,0L23,23.398l1.869-1.871 c0.704-0.703,1.927-0.702,2.628,0l1.96,1.963c0.723,0.724,0.723,1.902,0.001,2.627l-1.872,1.875l1.871,1.874 c0.723,0.726,0.722,1.904,0,2.627l-1.96,1.963c-0.726,0.725-1.905,0.724-2.627,0L23,32.584l-1.869,1.871 C20.768,34.818,20.292,34.999,19.816,34.999z M23,29.753l3.183,3.188l1.76-1.762l-3.183-3.188l3.183-3.188l-1.76-1.762L23,26.229 l-3.183-3.188l-1.76,1.762l3.183,3.188l-3.183,3.188l1.76,1.762L23,29.753z"/><path fill="#8d6c9f" d="M32,11c-0.552,0-1-0.448-1-1V6.389C31,2.866,33.866,0,37.389,0h0.223C41.134,0,44,2.866,44,6.389 c0,0.552-0.448,1-1,1s-1-0.448-1-1C42,3.969,40.031,2,37.611,2h-0.223C34.969,2,33,3.969,33,6.389V10C33,10.552,32.552,11,32,11z"/><g><circle cx="43.5" cy="8.5" r="2.5" fill="#85cbf8"/><path fill="#8d6c9f" d="M43.5,12c-1.93,0-3.5-1.57-3.5-3.5S41.57,5,43.5,5S47,6.57,47,8.5S45.43,12,43.5,12z M43.5,7 C42.673,7,42,7.673,42,8.5s0.673,1.5,1.5,1.5S45,9.327,45,8.5S44.327,7,43.5,7z"/></g><g><path fill="#8d6c9f" d="M47,55.967c0.553,0,1-0.444,1-0.992v-1.984C48,52.444,47.553,52,47,52s-1,0.444-1,0.992v1.984 C46,55.523,46.447,55.967,47,55.967z M42,55.967c0.553,0,1-0.444,1-0.992v-1.984C43,52.444,42.553,52,42,52s-1,0.444-1,0.992 v1.984C41,55.523,41.447,55.967,42,55.967z M37,55.967c0.553,0,1-0.444,1-0.992v-1.984C38,52.444,37.553,52,37,52 s-1,0.444-1,0.992v1.984C36,55.523,36.447,55.967,37,55.967z M32,52c-0.553,0-1,0.444-1,0.992v1.984c0,0.547,0.447,0.992,1,0.992 s1-0.444,1-0.992v-1.984C33,52.444,32.553,52,32,52z M27,52c-0.553,0-1,0.444-1,0.992v1.984c0,0.547,0.447,0.992,1,0.992 s1-0.444,1-0.992v-1.984C28,52.444,27.553,52,27,52z M22,52c-0.553,0-1,0.444-1,0.992v1.984c0,0.547,0.447,0.992,1,0.992 s1-0.444,1-0.992v-1.984C23,52.444,22.553,52,22,52z M17,52c-0.553,0-1,0.444-1,0.992v1.984c0,0.547,0.447,0.992,1,0.992 s1-0.444,1-0.992v-1.984C18,52.444,17.553,52,17,52z"/></g></svg>