<svg xmlns="http://www.w3.org/2000/svg" viewBox="0 0 100 100"><path fill="#c8ede6" d="M87.234,55.551c0.3-0.616,0.566-1.264,0.796-1.943c2.633-7.77-1.349-17.078-9.733-19.325 C77.391,22.9,69.391,15.09,60.356,13.758c-10.341-1.525-19.814,5.044-22.966,15.485c-3.799-1.346-7.501-1.182-10.99,0.857 c-1.583,0.732-3.031,1.812-4.33,3.233c-1.907,2.086-3.147,4.719-3.652,7.495c-0.748,0.118-1.483,0.236-2.176,0.484 c-4.04,1.449-6.589,4.431-7.288,8.923c-0.435,2.797,0.443,5.587,0.933,6.714c1.935,4.455,6.422,6.98,10.981,6.312 c0.227-0.033,0.557,0.069,0.752,0.233c0.241,7.12,3.698,13.417,8.884,17.014c8.321,5.772,19.027,3.994,25.781-3.921 c2.894,2.96,6.338,4.398,10.384,3.876c4.023-0.519,7.147-2.739,9.426-6.349c1.053,0.283,2.051,0.691,3.083,0.804 c4.042,0.442,7.297-1.184,9.732-4.8c0.083-0.124,0.203-0.219,0.306-0.328c0.348-0.798,0.696-1.596,1.044-2.394 c0.155-1.211,0.429-2.423,0.443-3.632C90.742,60.508,89.411,57.54,87.234,55.551z"/><path fill="#fdfcef" d="M35.337,39.423c0,0,11.691,0,11.762,0c2.7,0,4.888-2.189,4.888-4.889 c0-2.355-1.666-4.321-3.884-4.784c0.026-0.206,0.043-0.415,0.043-0.628c0-2.796-2.267-5.063-5.063-5.063 c-1.651,0-3.113,0.794-4.037,2.017c-0.236-3.113-3.017-5.514-6.27-5.116c-2.379,0.291-4.346,2.13-4.784,4.486 c-0.14,0.756-0.126,1.489,0.014,2.177c-0.638-0.687-1.546-1.119-2.557-1.119c-1.85,0-3.361,1.441-3.48,3.261 c-0.84-0.186-1.754-0.174-2.717,0.188c-1.84,0.691-3.15,2.423-3.227,4.387c-0.109,2.789,2.12,5.085,4.885,5.085 c0.21,0,0.948,0,1.118,0h10.151"/><path fill="#472b29" d="M47.099,39.923H35.337c-0.276,0-0.5-0.224-0.5-0.5s0.224-0.5,0.5-0.5h11.762 c2.42,0,4.389-1.969,4.389-4.389c0-2.066-1.466-3.873-3.486-4.295c-0.255-0.053-0.426-0.293-0.394-0.552 c0.023-0.186,0.039-0.374,0.039-0.565c0-2.517-2.047-4.563-4.562-4.563c-1.438,0-2.765,0.663-3.638,1.818 c-0.125,0.166-0.338,0.237-0.54,0.178c-0.199-0.059-0.342-0.234-0.357-0.441c-0.104-1.377-0.779-2.671-1.85-3.549 c-1.083-0.888-2.456-1.282-3.86-1.109c-2.166,0.266-3.956,1.943-4.353,4.081c-0.124,0.667-0.12,1.335,0.013,1.986 c0.044,0.22-0.062,0.442-0.262,0.544c-0.2,0.104-0.443,0.06-0.595-0.104c-0.575-0.618-1.353-0.959-2.19-0.959 c-1.569,0-2.878,1.228-2.981,2.794c-0.01,0.146-0.082,0.279-0.199,0.366c-0.117,0.089-0.268,0.12-0.408,0.089 c-0.841-0.185-1.637-0.132-2.433,0.167c-1.669,0.627-2.835,2.209-2.903,3.938c-0.047,1.207,0.387,2.35,1.221,3.218 c0.835,0.869,1.959,1.348,3.164,1.348h11.269c0.276,0,0.5,0.224,0.5,0.5s-0.224,0.5-0.5,0.5H20.912 c-1.479,0-2.858-0.588-3.884-1.654c-1.025-1.066-1.558-2.469-1.5-3.95c0.083-2.126,1.51-4.069,3.55-4.835 c0.8-0.301,1.626-0.398,2.468-0.299c0.377-1.822,1.998-3.182,3.905-3.182c0.684,0,1.354,0.18,1.944,0.51 c0-0.386,0.035-0.772,0.106-1.159c0.477-2.562,2.621-4.573,5.215-4.891c1.679-0.205,3.32,0.266,4.616,1.328 c1.003,0.823,1.716,1.951,2.038,3.193c1.012-0.916,2.319-1.426,3.714-1.426c3.067,0,5.562,2.496,5.562,5.563 c0,0.083-0.002,0.166-0.007,0.248c2.254,0.673,3.848,2.776,3.848,5.164C52.488,37.507,50.071,39.923,47.099,39.923z"/><path fill="#fdfcef" d="M32.504,28.655c-1.808-0.119-3.365,1.13-3.476,2.789c-0.014,0.206-0.005,0.409,0.025,0.606 c-0.349-0.394-0.865-0.661-1.458-0.7c-1.085-0.071-2.022,0.645-2.158,1.62c-0.197-0.054-0.403-0.09-0.616-0.104 c-1.582-0.104-2.944,0.989-3.042,2.441"/><path fill="#472b29" d="M21.78,35.556c-0.006,0-0.012,0-0.017-0.001c-0.138-0.009-0.242-0.128-0.233-0.266 c0.107-1.587,1.588-2.789,3.308-2.674c0.137,0.009,0.273,0.026,0.409,0.053c0.274-0.968,1.256-1.645,2.366-1.567 c0.425,0.027,0.823,0.159,1.164,0.382c0-0.019,0.002-0.037,0.003-0.056c0.12-1.795,1.787-3.16,3.742-3.021 c0.138,0.009,0.242,0.128,0.233,0.266s-0.124,0.255-0.266,0.232c-1.651-0.105-3.108,1.037-3.21,2.557 c-0.012,0.184-0.004,0.37,0.023,0.553c0.017,0.109-0.041,0.217-0.141,0.264s-0.219,0.022-0.293-0.061 c-0.323-0.365-0.78-0.584-1.287-0.617c-0.951-0.034-1.775,0.556-1.894,1.404c-0.01,0.071-0.05,0.135-0.11,0.175 c-0.06,0.039-0.133,0.051-0.204,0.032c-0.187-0.051-0.377-0.083-0.567-0.097c-1.44-0.092-2.687,0.896-2.775,2.209 C22.02,35.455,21.91,35.556,21.78,35.556z"/><path fill="#fdfcef" d="M49.079,30.323c-1.699-0.801-3.664-0.234-4.389,1.267c-0.09,0.186-0.157,0.379-0.201,0.574"/><path fill="#472b29" d="M44.489,32.414c-0.018,0-0.037-0.002-0.056-0.006c-0.134-0.031-0.219-0.165-0.188-0.3 c0.049-0.217,0.123-0.428,0.219-0.627c0.783-1.621,2.902-2.239,4.721-1.385c0.125,0.06,0.179,0.208,0.12,0.333 c-0.059,0.126-0.209,0.176-0.333,0.12c-1.574-0.744-3.394-0.227-4.058,1.149c-0.08,0.165-0.141,0.34-0.182,0.521 C44.706,32.336,44.603,32.414,44.489,32.414z"/><path fill="#fff" d="M14.899,55H4.869c-0.276,0-0.5-0.224-0.5-0.5s0.224-0.5,0.5-0.5h10.03c0.276,0,0.5,0.224,0.5,0.5 S15.176,55,14.899,55z M18.28,54.5c0-0.276-0.224-0.5-0.5-0.5h-1.446c-0.276,0-0.5,0.224-0.5,0.5s0.224,0.5,0.5,0.5h1.446 C18.057,55,18.28,54.776,18.28,54.5z M22.335,54.5c0-0.276-0.224-0.5-0.5-0.5h-2.546c-0.276,0-0.5,0.224-0.5,0.5s0.224,0.5,0.5,0.5 h2.546C22.112,55,22.335,54.776,22.335,54.5z M22.335,56.5c0-0.276-0.224-0.5-0.5-0.5h-9.616c-0.276,0-0.5,0.224-0.5,0.5 s0.224,0.5,0.5,0.5h9.616C22.112,57,22.335,56.776,22.335,56.5z M10.987,56.5c0-0.276-0.224-0.5-0.5-0.5h-0.58 c-0.276,0-0.5,0.224-0.5,0.5s0.224,0.5,0.5,0.5h0.58C10.763,57,10.987,56.776,10.987,56.5z M8.611,56.5c0-0.276-0.224-0.5-0.5-0.5 H6.654c-0.276,0-0.5,0.224-0.5,0.5s0.224,0.5,0.5,0.5h1.457C8.387,57,8.611,56.776,8.611,56.5z M17.746,52.5 c0-0.276-0.224-0.5-0.5-0.5h-5.027c-0.276,0-0.5,0.224-0.5,0.5s0.224,0.5,0.5,0.5h5.027C17.523,53,17.746,52.776,17.746,52.5z M17.746,50.5c0-0.276-0.224-0.5-0.5-0.5h-1.257c-0.276,0-0.5,0.224-0.5,0.5s0.224,0.5,0.5,0.5h1.257 C17.523,51,17.746,50.776,17.746,50.5z M14.477,58.5c0-0.276-0.224-0.5-0.5-0.5h-1.758c-0.276,0-0.5,0.224-0.5,0.5 s0.224,0.5,0.5,0.5h1.758C14.254,59,14.477,58.776,14.477,58.5z"/><path fill="#fff" d="M77.744,33h-10.03c-0.276,0-0.5-0.224-0.5-0.5s0.224-0.5,0.5-0.5h10.031c0.276,0,0.5,0.224,0.5,0.5 S78.021,33,77.744,33z M81.125,32.5c0-0.276-0.224-0.5-0.5-0.5h-1.446c-0.276,0-0.5,0.224-0.5,0.5s0.224,0.5,0.5,0.5h1.446 C80.902,33,81.125,32.776,81.125,32.5z M85.18,32.5c0-0.276-0.224-0.5-0.5-0.5h-2.546c-0.276,0-0.5,0.224-0.5,0.5 s0.224,0.5,0.5,0.5h2.546C84.956,33,85.18,32.776,85.18,32.5z M83.154,28.5c0-0.276-0.224-0.5-0.5-0.5h-9.616 c-0.276,0-0.5,0.224-0.5,0.5s0.224,0.5,0.5,0.5h9.616C82.93,29,83.154,28.776,83.154,28.5z M71.806,28.5c0-0.276-0.224-0.5-0.5-0.5 h-0.58c-0.276,0-0.5,0.224-0.5,0.5s0.224,0.5,0.5,0.5h0.58C71.583,29,71.806,28.776,71.806,28.5z M69.429,28.5 c0-0.276-0.224-0.5-0.5-0.5h-1.456c-0.276,0-0.5,0.224-0.5,0.5s0.224,0.5,0.5,0.5h1.456C69.206,29,69.429,28.776,69.429,28.5z M80.591,30.5c0-0.276-0.224-0.5-0.5-0.5h-5.027c-0.276,0-0.5,0.224-0.5,0.5s0.224,0.5,0.5,0.5h5.027 C80.367,31,80.591,30.776,80.591,30.5z M80.591,28.5c0-0.276-0.224-0.5-0.5-0.5h-1.257c-0.276,0-0.5,0.224-0.5,0.5 s0.224,0.5,0.5,0.5h1.257C80.367,29,80.591,28.776,80.591,28.5z M74.108,30.5c0-0.276-0.224-0.5-0.5-0.5H71.85 c-0.276,0-0.5,0.224-0.5,0.5s0.224,0.5,0.5,0.5h1.758C73.885,31,74.108,30.776,74.108,30.5z"/><path fill="#77cbd2" d="M35.264,55.5h-6.528c-1.235,0-2.236-1.001-2.236-2.236v-0.528c0-1.235,1.001-2.236,2.236-2.236 h6.528c1.235,0,2.236,1.001,2.236,2.236v0.528C37.5,54.499,36.499,55.5,35.264,55.5z"/><path fill="#472b29" d="M35.264,56h-6.527C27.228,56,26,54.772,26,53.264v-0.527C26,51.228,27.228,50,28.736,50h6.527 C36.772,50,38,51.228,38,52.736v0.527C38,54.772,36.772,56,35.264,56z M28.736,51C27.779,51,27,51.779,27,52.736v0.527 C27,54.221,27.779,55,28.736,55h6.527C36.221,55,37,54.221,37,53.264v-0.527C37,51.779,36.221,51,35.264,51H28.736z"/><path fill="#77cbd2" d="M75.264,55.5h-6.528c-1.235,0-2.236-1.001-2.236-2.236v-0.528c0-1.235,1.001-2.236,2.236-2.236 h6.528c1.235,0,2.236,1.001,2.236,2.236v0.528C77.5,54.499,76.499,55.5,75.264,55.5z"/><path fill="#472b29" d="M75.264,56h-6.527C67.228,56,66,54.772,66,53.264v-0.527C66,51.228,67.228,50,68.736,50h6.527 C76.772,50,78,51.228,78,52.736v0.527C78,54.772,76.772,56,75.264,56z M68.736,51C67.779,51,67,51.779,67,52.736v0.527 C67,54.221,67.779,55,68.736,55h6.527C76.221,55,77,54.221,77,53.264v-0.527C77,51.779,76.221,51,75.264,51H68.736z"/><path fill="#472b29" d="M52.7,33.5h-1.4v-7c0-3.414,2.742-5.2,5.45-5.2s5.45,1.786,5.45,5.2h-1.4c0-2.611-2.1-3.8-4.05-3.8 s-4.05,1.188-4.05,3.8V33.5z"/><path fill="#cbc9bc" d="M67.7,60.3V45.7h3.55c1.682,0,3.05,1.368,3.05,3.05v8.5c0,1.682-1.368,3.05-3.05,3.05H67.7z"/><path fill="#472b29" d="M71.25,46.4c1.296,0,2.35,1.054,2.35,2.35v8.5c0,1.296-1.054,2.35-2.35,2.35H68.4V46.4H71.25 M71.25,45H67v16h4.25c2.071,0,3.75-1.679,3.75-3.75v-8.5C75,46.679,73.321,45,71.25,45L71.25,45z"/><path fill="#cbc9bc" d="M43.733,36.3c0.354-3.698,3.478-6.6,7.267-6.6h2c3.789,0,6.913,2.901,7.267,6.6H43.733z"/><path fill="#472b29" d="M53,30.4c3.159,0,5.807,2.231,6.451,5.2H44.549c0.644-2.969,3.292-5.2,6.451-5.2H53 M53,29h-2 c-4.418,0-8,3.582-8,8h18C61,32.582,57.418,29,53,29L53,29z"/><path fill="#cbc9bc" d="M32.75,60.3c-1.682,0-3.05-1.368-3.05-3.05v-8.5c0-1.682,1.368-3.05,3.05-3.05h3.55v14.6H32.75z"/><path fill="#472b29" d="M35.6,46.4v13.2h-2.85c-1.296,0-2.35-1.054-2.35-2.35v-8.5c0-1.296,1.054-2.35,2.35-2.35H35.6 M37,45h-4.25C30.679,45,29,46.679,29,48.75v8.5c0,2.071,1.679,3.75,3.75,3.75H37V45L37,45z"/><path fill="#e1e0d8" d="M40.583,71.3c-3.795,0-6.883-3.088-6.883-6.883V41.583c0-3.795,3.088-6.883,6.883-6.883h22.834 c3.795,0,6.883,3.088,6.883,6.883v22.834c0,3.795-3.088,6.883-6.883,6.883H40.583z"/><path fill="#472b29" d="M63.417,35.4c3.41,0,6.183,2.774,6.183,6.184v22.833c0,3.41-2.774,6.184-6.183,6.184H40.583 c-3.41,0-6.183-2.774-6.183-6.184V41.583c0-3.41,2.774-6.184,6.183-6.184H63.417 M63.417,34H40.583C36.395,34,33,37.395,33,41.583 v22.833C33,68.605,36.395,72,40.583,72h22.833C67.605,72,71,68.605,71,64.417V41.583C71,37.395,67.605,34,63.417,34L63.417,34z"/><polygon fill="#00a5a5" points="56.172,64.58 52.008,60.58 47.842,64.579 43.67,60.578 40.538,63.582 38.462,61.418 43.67,56.422 47.841,60.421 52.008,56.42 56.172,60.42 60.336,56.42 65.539,61.418 63.461,63.582 60.336,60.58"/><path fill="#472b29" d="M40.538,63.832c-0.065,0-0.131-0.025-0.181-0.077l-2.076-2.164c-0.096-0.1-0.092-0.258,0.008-0.354 l1.047-1.005c0.098-0.094,0.256-0.093,0.354,0.008c0.096,0.1,0.092,0.258-0.008,0.354l-0.866,0.831l1.73,1.804l2.951-2.831 c0.099-0.094,0.257-0.093,0.354,0.008c0.096,0.1,0.092,0.258-0.008,0.354l-3.132,3.004C40.663,63.809,40.601,63.832,40.538,63.832z"/><path fill="#472b29" d="M46.718,63.751c-0.063,0-0.125-0.023-0.173-0.069l-2.154-2.065c-0.1-0.096-0.104-0.254-0.008-0.354 c0.096-0.101,0.256-0.102,0.354-0.008l2.154,2.065c0.1,0.096,0.104,0.254,0.008,0.354C46.85,63.726,46.783,63.751,46.718,63.751z"/><path fill="#472b29" d="M56.172,64.83c-0.063,0-0.125-0.023-0.173-0.069l-3.991-3.834l-3.993,3.833 c-0.098,0.095-0.256,0.095-0.354-0.008c-0.096-0.1-0.092-0.258,0.008-0.354l4.166-3.999c0.096-0.092,0.25-0.092,0.346,0 l3.991,3.834l3.991-3.834c0.099-0.094,0.257-0.093,0.354,0.008c0.096,0.1,0.092,0.258-0.008,0.354l-4.164,4 C56.297,64.807,56.234,64.83,56.172,64.83z"/><path fill="#472b29" d="M63.461,63.832c-0.063,0-0.125-0.023-0.173-0.069l-1.616-1.552c-0.1-0.096-0.104-0.254-0.008-0.354 c0.099-0.101,0.257-0.102,0.354-0.008l1.437,1.379l1.731-1.804l-4.85-4.658l-2.7,2.594c-0.098,0.095-0.256,0.094-0.354-0.008 c-0.096-0.1-0.092-0.258,0.008-0.354l2.873-2.76c0.096-0.092,0.25-0.092,0.346,0l5.203,4.998c0.1,0.096,0.104,0.254,0.008,0.354 l-2.078,2.164C63.592,63.807,63.526,63.832,63.461,63.832z"/><path fill="#472b29" d="M56.172,60.67c-0.063,0-0.125-0.023-0.173-0.069l-4.164-4c-0.1-0.096-0.104-0.254-0.008-0.354 c0.098-0.101,0.256-0.101,0.354-0.008l4.164,4c0.1,0.096,0.104,0.254,0.008,0.354C56.303,60.645,56.237,60.67,56.172,60.67z"/><path fill="#472b29" d="M47.841,60.671c-0.063,0-0.125-0.023-0.173-0.069l-3.998-3.833l-2.682,2.572 c-0.098,0.095-0.256,0.095-0.354-0.008c-0.096-0.1-0.092-0.258,0.008-0.354l2.854-2.738c0.096-0.092,0.25-0.092,0.346,0 l3.998,3.833l2.737-2.629c0.099-0.094,0.257-0.093,0.354,0.008c0.096,0.1,0.092,0.258-0.008,0.354l-2.91,2.795 C47.966,60.647,47.903,60.671,47.841,60.671z"/><circle cx="59.5" cy="47.5" r="5" fill="#00a5a5"/><path fill="#472b29" d="M59.5,52.75c-2.895,0-5.25-2.355-5.25-5.25s2.355-5.25,5.25-5.25s5.25,2.355,5.25,5.25 S62.395,52.75,59.5,52.75z M59.5,42.75c-2.619,0-4.75,2.131-4.75,4.75s2.131,4.75,4.75,4.75s4.75-2.131,4.75-4.75 S62.119,42.75,59.5,42.75z"/><circle cx="59.5" cy="47.5" r="2" fill="#77cbd2"/><path fill="#472b29" d="M61.368,48.466c-0.029,0-0.06-0.005-0.089-0.017c-0.129-0.049-0.194-0.193-0.145-0.322 c0.076-0.201,0.115-0.412,0.115-0.627c0-0.965-0.785-1.75-1.75-1.75c-0.366,0-0.717,0.111-1.013,0.322 c-0.112,0.081-0.27,0.055-0.349-0.058c-0.081-0.113-0.055-0.269,0.058-0.349c0.382-0.272,0.833-0.416,1.304-0.416 c1.24,0,2.25,1.01,2.25,2.25c0,0.276-0.05,0.547-0.148,0.805C61.563,48.404,61.469,48.466,61.368,48.466z"/><path fill="#472b29" d="M59.5,49.75c-1.24,0-2.25-1.01-2.25-2.25c0-0.138,0.112-0.25,0.25-0.25s0.25,0.112,0.25,0.25 c0,0.965,0.785,1.75,1.75,1.75c0.468,0,0.907-0.182,1.237-0.513c0.097-0.098,0.255-0.098,0.354,0c0.098,0.098,0.098,0.256,0,0.354 C60.667,49.516,60.102,49.75,59.5,49.75z"/><path fill="#00a5a5" d="M49.374,43.874l-1.747-1.747c-0.298-0.298-0.782-0.298-1.081,0l-2.296,2.296l-2.296-2.296 c-0.298-0.298-0.782-0.298-1.081,0l-1.747,1.747c-0.298,0.298-0.298,0.782,0,1.081l2.296,2.296l-2.296,2.296 c-0.298,0.298-0.298,0.782,0,1.081l1.747,1.747c0.298,0.298,0.782,0.298,1.081,0l2.296-2.296l2.296,2.296 c0.298,0.298,0.782,0.298,1.081,0l1.747-1.747c0.298-0.298,0.298-0.782,0-1.081l-2.296-2.296l2.296-2.296 C49.672,44.656,49.672,44.172,49.374,43.874z"/><path fill="#472b29" d="M47.086,52.848c-0.26,0-0.52-0.1-0.717-0.297l-2.119-2.119l-2.119,2.119 c-0.395,0.395-1.039,0.395-1.434,0l-1.748-1.748c-0.396-0.396-0.396-1.038,0-1.434l2.119-2.119l-2.119-2.119 c-0.396-0.396-0.396-1.038,0-1.434l1.748-1.748c0.395-0.395,1.039-0.395,1.434,0l2.119,2.119l2.119-2.119 c0.395-0.395,1.039-0.395,1.434,0l1.748,1.748c0.396,0.396,0.396,1.038,0,1.434l-2.119,2.119l2.119,2.119 c0.396,0.396,0.396,1.038,0,1.434l-1.748,1.748C47.605,52.748,47.346,52.848,47.086,52.848z M44.25,49.828 c0.064,0,0.128,0.024,0.177,0.073l2.296,2.296c0.201,0.201,0.525,0.201,0.727,0l1.748-1.748c0.2-0.2,0.2-0.526,0-0.727 l-2.296-2.296c-0.098-0.098-0.098-0.256,0-0.354l2.296-2.296c0.2-0.2,0.2-0.526,0-0.727l-1.748-1.748 c-0.201-0.201-0.525-0.201-0.727,0l-2.296,2.296c-0.098,0.098-0.256,0.098-0.354,0l-2.296-2.296c-0.201-0.201-0.525-0.201-0.727,0 l-1.748,1.748c-0.2,0.2-0.2,0.526,0,0.727l2.296,2.296c0.098,0.098,0.098,0.256,0,0.354l-2.296,2.296c-0.2,0.2-0.2,0.526,0,0.727 l1.748,1.748c0.201,0.201,0.525,0.201,0.727,0l2.296-2.296C44.122,49.853,44.186,49.828,44.25,49.828z"/><g><circle cx="61.5" cy="27.5" r="2" fill="#77cbd2"/><path fill="#472b29" d="M61.5,30c-1.379,0-2.5-1.121-2.5-2.5s1.121-2.5,2.5-2.5s2.5,1.121,2.5,2.5S62.879,30,61.5,30z M61.5,26c-0.827,0-1.5,0.673-1.5,1.5s0.673,1.5,1.5,1.5s1.5-0.673,1.5-1.5S62.327,26,61.5,26z"/></g><g><path fill="#472b29" d="M47.328,50.578c-0.064,0-0.128-0.024-0.177-0.073l-3.911-3.911c-0.098-0.098-0.098-0.256,0-0.354 s0.256-0.098,0.354,0l3.911,3.911c0.098,0.098,0.098,0.256,0,0.354C47.456,50.554,47.393,50.578,47.328,50.578z"/></g><g><path fill="#472b29" d="M42.458,45.708c-0.064,0-0.128-0.024-0.177-0.073l-0.958-0.958c-0.098-0.098-0.098-0.256,0-0.354 s0.256-0.098,0.354,0l0.958,0.958c0.098,0.098,0.098,0.256,0,0.354C42.586,45.684,42.522,45.708,42.458,45.708z"/></g><g><path fill="#472b29" d="M46.394,45.685c-0.064,0-0.128-0.024-0.177-0.073c-0.098-0.098-0.098-0.256,0-0.354l0.935-0.935 c0.098-0.098,0.256-0.098,0.354,0s0.098,0.256,0,0.354l-0.935,0.935C46.521,45.66,46.458,45.685,46.394,45.685z"/></g><g><path fill="#472b29" d="M41.5,50.578c-0.064,0-0.128-0.024-0.177-0.073c-0.098-0.098-0.098-0.256,0-0.354l3.997-3.997 c0.098-0.098,0.256-0.098,0.354,0s0.098,0.256,0,0.354l-3.997,3.997C41.628,50.554,41.564,50.578,41.5,50.578z"/></g><g><path fill="#472b29" d="M48.5,39h-5c-0.276,0-0.5-0.224-0.5-0.5s0.224-0.5,0.5-0.5h5c0.276,0,0.5,0.224,0.5,0.5 S48.776,39,48.5,39z"/></g><g><path fill="#472b29" d="M40.5,39h-3c-0.276,0-0.5-0.224-0.5-0.5s0.224-0.5,0.5-0.5h3c0.276,0,0.5,0.224,0.5,0.5 S40.776,39,40.5,39z"/></g><g><path fill="#472b29" d="M66.5,39h-15c-0.276,0-0.5-0.224-0.5-0.5s0.224-0.5,0.5-0.5h15c0.276,0,0.5,0.224,0.5,0.5 S66.776,39,66.5,39z"/></g><g><path fill="#472b29" d="M42.5,68h-5c-0.276,0-0.5-0.224-0.5-0.5s0.224-0.5,0.5-0.5h5c0.276,0,0.5,0.224,0.5,0.5 S42.776,68,42.5,68z"/></g><g><path fill="#472b29" d="M66.5,68h-3c-0.276,0-0.5-0.224-0.5-0.5s0.224-0.5,0.5-0.5h3c0.276,0,0.5,0.224,0.5,0.5 S66.776,68,66.5,68z"/></g><g><path fill="#472b29" d="M60.5,68h-15c-0.276,0-0.5-0.224-0.5-0.5s0.224-0.5,0.5-0.5h15c0.276,0,0.5,0.224,0.5,0.5 S60.776,68,60.5,68z"/></g><g><path fill="#fdfcef" d="M71.908,77.287h7.934c0.133,0,0.71,0,0.874,0c2.161,0,3.903-1.756,3.818-3.889 c-0.06-1.503-1.084-2.828-2.522-3.356c-0.752-0.276-1.466-0.285-2.123-0.143c-0.093-1.392-1.274-2.494-2.72-2.494 c-0.79,0-1.5,0.331-1.998,0.856c0.109-0.526,0.121-1.087,0.011-1.665c-0.342-1.802-1.88-3.208-3.739-3.431 c-2.542-0.305-4.715,1.532-4.9,3.913c-0.722-0.936-1.865-1.543-3.155-1.543c-2.185,0-3.957,1.734-3.957,3.873 c0,0.163,0.014,0.322,0.034,0.48c-1.733,0.355-3.035,1.858-3.035,3.66c0,2.065,1.711,3.739,3.821,3.739c0.023,0,1.657,0,3.54,0 M69.908,77.287h0.36"/><path fill="#472b29" d="M55.931,73.547c0-1.85,1.239-3.483,3.003-4.038c-0.001-0.035-0.001-0.069-0.001-0.103 c0-2.411,1.999-4.373,4.457-4.373c1.056,0,2.051,0.359,2.842,1.007c0.268-0.893,0.798-1.689,1.546-2.302 c1.041-0.853,2.361-1.238,3.726-1.071c2.074,0.248,3.789,1.824,4.17,3.833c0.046,0.243,0.074,0.485,0.083,0.727 c0.437-0.21,0.921-0.323,1.414-0.323c1.506,0,2.791,1.028,3.135,2.424c0.64-0.06,1.27,0.019,1.88,0.244 c1.637,0.602,2.782,2.131,2.849,3.806c0.046,1.149-0.37,2.242-1.173,3.078c-0.813,0.846-1.959,1.331-3.144,1.331h-8.807 c-0.276,0-0.5-0.224-0.5-0.5s0.224-0.5,0.5-0.5h8.807c0.927,0,1.788-0.364,2.423-1.024c0.612-0.637,0.93-1.47,0.895-2.346 c-0.051-1.274-0.933-2.442-2.195-2.905c-0.603-0.223-1.207-0.263-1.846-0.125c-0.142,0.031-0.29-0.002-0.406-0.089 c-0.116-0.088-0.188-0.22-0.198-0.366c-0.076-1.136-1.052-2.027-2.221-2.027c-0.626,0-1.207,0.249-1.635,0.7 c-0.154,0.163-0.397,0.202-0.594,0.1c-0.198-0.104-0.303-0.326-0.258-0.545c0.1-0.482,0.103-0.977,0.009-1.472 c-0.301-1.585-1.661-2.83-3.307-3.027c-1.088-0.126-2.144,0.173-2.973,0.853c-0.804,0.66-1.29,1.584-1.369,2.604 c-0.016,0.206-0.157,0.38-0.355,0.44c-0.198,0.057-0.413-0.01-0.539-0.174c-0.662-0.858-1.668-1.349-2.76-1.349 c-1.906,0-3.457,1.513-3.457,3.373c0,0.142,0.012,0.28,0.03,0.417c0.033,0.26-0.14,0.501-0.396,0.554 c-1.528,0.312-2.636,1.646-2.636,3.17c0,1.786,1.49,3.239,3.321,3.239h3.54c0.276,0,0.5,0.224,0.5,0.5s-0.224,0.5-0.5,0.5h-3.54 C57.868,77.788,55.93,75.886,55.931,73.547z M69.408,77.288c0-0.276,0.224-0.5,0.5-0.5h0.36c0.276,0,0.5,0.224,0.5,0.5 s-0.224,0.5-0.5,0.5h-0.36C69.632,77.788,69.408,77.564,69.408,77.288z"/><g><path fill="#472b29" d="M61.958,71.984c0.018,0,0.036-0.002,0.055-0.006c0.135-0.03,0.22-0.164,0.189-0.299 c-0.037-0.164-0.094-0.325-0.17-0.479c-0.604-1.224-2.272-1.677-3.722-1.007c-0.125,0.058-0.18,0.206-0.122,0.331 c0.058,0.126,0.207,0.179,0.332,0.122c1.201-0.556,2.577-0.208,3.063,0.774c0.058,0.118,0.102,0.242,0.13,0.367 C61.74,71.905,61.843,71.984,61.958,71.984z"/></g><g><path fill="#472b29" d="M67.117,77.788h1.107c0.276,0,0.5-0.224,0.5-0.5s-0.224-0.5-0.5-0.5h-1.107 c-0.276,0-0.5,0.224-0.5,0.5S66.84,77.788,67.117,77.788z"/></g></g></svg>