<?xml version="1.0" encoding="utf-8"?>
<svg xmlns="http://www.w3.org/2000/svg" viewBox="0 0 80 80" fill="#ffffff"><path d="M 38.140625 12 C 36.46875 12 34.90625 12.835938 33.980469 14.226563 L 31.058594 18.609375 L 20.542969 20.269531 C 19.484375 19.140625 18.011719 18.390625 16.34375 18.613281 L 16.339844 18.613281 L 9.34375 19.546875 C 6.863281 19.875 5 22.003906 5 24.5 L 5 61 C 5 63.75 7.25 66 10 66 L 70 66 C 72.75 66 75 63.75 75 61 L 75 25.355469 C 75 23.203125 73.617188 21.328125 71.636719 20.640625 L 71.707031 19.972656 C 71.878906 18.398438 70.777344 16.945313 69.21875 16.6875 L 64.890625 15.964844 C 64.6875 15.929688 64.488281 15.917969 64.289063 15.921875 C 62.90625 15.976563 61.6875 16.996094 61.441406 18.40625 L 61.378906 18.757813 L 60.996094 18.6875 L 58.019531 14.226563 C 57.09375 12.835938 55.53125 12 53.859375 12 Z M 38.140625 14 L 53.859375 14 C 54.863281 14 55.800781 14.5 56.355469 15.335938 L 59.804688 20.511719 L 70.519531 22.402344 C 71.960938 22.65625 73 23.894531 73 25.355469 L 73 61 C 73 62.667969 71.667969 64 70 64 L 10 64 C 8.332031 64 7 62.667969 7 61 L 7 24.5 C 7 22.992188 8.105469 21.726563 9.605469 21.527344 L 16.605469 20.59375 C 17.785156 20.4375 18.851563 20.980469 19.46875 21.886719 L 19.828125 22.40625 L 32.234375 20.449219 L 35.644531 15.335938 C 36.203125 14.5 37.136719 14 38.140625 14 Z M 64.5625 17.9375 L 68.890625 18.65625 C 69.421875 18.746094 69.777344 19.214844 69.71875 19.753906 L 69.667969 20.21875 L 63.347656 19.105469 L 63.410156 18.75 C 63.507813 18.199219 64.007813 17.84375 64.5625 17.9375 Z M 46 23 C 36.070313 23 28 31.070313 28 41 C 28 50.929688 36.070313 59 46 59 C 54.199219 59 61.113281 53.492188 63.28125 45.984375 C 65.902344 45.835938 68 43.652344 68 41 C 68 38.347656 65.902344 36.164063 63.28125 36.015625 C 61.113281 28.507813 54.199219 23 46 23 Z M 20 24 C 19.449219 24 19 24.449219 19 25 C 19 25.550781 19.449219 26 20 26 C 20.550781 26 21 25.550781 21 25 C 21 24.449219 20.550781 24 20 24 Z M 13 24.5 C 10.972656 24.5 9.5 26.394531 9.5 28.5 C 9.5 30.605469 10.972656 32.5 13 32.5 C 15.027344 32.5 16.5 30.605469 16.5 28.5 C 16.5 26.394531 15.027344 24.5 13 24.5 Z M 46 25 C 54.847656 25 62 32.152344 62 41 C 62 49.847656 54.847656 57 46 57 C 37.152344 57 30 49.847656 30 41 C 30 32.152344 37.152344 25 46 25 Z M 13 26.5 C 13.730469 26.5 14.5 27.292969 14.5 28.5 C 14.5 29.707031 13.730469 30.5 13 30.5 C 12.269531 30.5 11.5 29.707031 11.5 28.5 C 11.5 27.292969 12.269531 26.5 13 26.5 Z M 20 28 C 19.449219 28 19 28.449219 19 29 C 19 29.550781 19.449219 30 20 30 C 20.550781 30 21 29.550781 21 29 C 21 28.449219 20.550781 28 20 28 Z M 46 28 C 38.832031 28 33 33.832031 33 41 C 33 48.167969 38.832031 54 46 54 C 53.167969 54 59 48.167969 59 41 C 59 33.832031 53.167969 28 46 28 Z M 46 30 C 52.085938 30 57 34.914063 57 41 C 57 47.085938 52.085938 52 46 52 C 39.914063 52 35 47.085938 35 41 C 35 34.914063 39.914063 30 46 30 Z M 20 32 C 19.449219 32 19 32.449219 19 33 C 19 33.550781 19.449219 34 20 34 C 20.550781 34 21 33.550781 21 33 C 21 32.449219 20.550781 32 20 32 Z M 20 36 C 19.449219 36 19 36.449219 19 37 C 19 37.550781 19.449219 38 20 38 C 20.550781 38 21 37.550781 21 37 C 21 36.449219 20.550781 36 20 36 Z M 63.746094 38.105469 C 65.046875 38.433594 66 39.589844 66 41 C 66 42.410156 65.046875 43.566406 63.746094 43.894531 C 63.898438 42.953125 64 41.988281 64 41 C 64 40.011719 63.898438 39.046875 63.746094 38.105469 Z M 20 40 C 19.449219 40 19 40.449219 19 41 C 19 41.550781 19.449219 42 20 42 C 20.550781 42 21 41.550781 21 41 C 21 40.449219 20.550781 40 20 40 Z M 20 44 C 19.449219 44 19 44.449219 19 45 C 19 45.550781 19.449219 46 20 46 C 20.550781 46 21 45.550781 21 45 C 21 44.449219 20.550781 44 20 44 Z M 20 48 C 19.449219 48 19 48.449219 19 49 C 19 49.550781 19.449219 50 20 50 C 20.550781 50 21 49.550781 21 49 C 21 48.449219 20.550781 48 20 48 Z M 20 52 C 19.449219 52 19 52.449219 19 53 C 19 53.550781 19.449219 54 20 54 C 20.550781 54 21 53.550781 21 53 C 21 52.449219 20.550781 52 20 52 Z M 20 56 C 19.449219 56 19 56.449219 19 57 C 19 57.550781 19.449219 58 20 58 C 20.550781 58 21 57.550781 21 57 C 21 56.449219 20.550781 56 20 56 Z M 20 60 C 19.449219 60 19 60.449219 19 61 C 19 61.550781 19.449219 62 20 62 C 20.550781 62 21 61.550781 21 61 C 21 60.449219 20.550781 60 20 60 Z" fill="#ffffff"/></svg>
