<svg xmlns="http://www.w3.org/2000/svg" viewBox="0 0 100 100"><path fill="#c7ede6" d="M87.215,56.71C88.35,54.555,89,52.105,89,49.5c0-6.621-4.159-12.257-10.001-14.478 C78.999,35.015,79,35.008,79,35c0-11.598-9.402-21-21-21c-9.784,0-17.981,6.701-20.313,15.757C36.211,29.272,34.638,29,33,29 c-7.692,0-14.023,5.793-14.89,13.252C12.906,43.353,9,47.969,9,53.5C9,59.851,14.149,65,20.5,65c0.177,0,0.352-0.012,0.526-0.022 C21.022,65.153,21,65.324,21,65.5C21,76.822,30.178,86,41.5,86c6.437,0,12.175-2.972,15.934-7.614C59.612,80.611,62.64,82,66,82 c4.65,0,8.674-2.65,10.666-6.518C77.718,75.817,78.837,76,80,76c6.075,0,11-4.925,11-11C91,61.689,89.53,58.727,87.215,56.71z"/><path fill="#fdfcef" d="M35.875,41.5c0,0,3.64,0,6.125,0s4.5-2.015,4.5-4.5c0-2.333-1.782-4.229-4.055-4.455 C42.467,32.364,42.5,32.187,42.5,32c0-2.485-2.015-4.5-4.5-4.5c-1.438,0-2.703,0.686-3.527,1.736 C34.333,26.6,32.171,24.5,29.5,24.5c-2.761,0-5,2.239-5,5c0,0.446,0.077,0.87,0.187,1.282C24.045,30.005,23.086,29.5,22,29.5 c-1.781,0-3.234,1.335-3.455,3.055C18.364,32.533,18.187,32.5,18,32.5c-2.485,0-4.5,2.015-4.5,4.5s2.015,4.5,4.5,4.5s9.5,0,9.5,0 h5.375V42h3V41.5z"/><path fill="#472b29" d="M29.5,24c-3.033,0-5.5,2.467-5.5,5.5c0,0.016,0,0.031,0,0.047C23.398,29.192,22.71,29,22,29 c-1.831,0-3.411,1.261-3.858,3.005C18.095,32.002,18.048,32,18,32c-2.757,0-5,2.243-5,5s2.243,5,5,5h14.875 c0.276,0,0.5-0.224,0.5-0.5s-0.224-0.5-0.5-0.5H18c-2.206,0-4-1.794-4-4s1.794-4,4-4c0.117,0,0.23,0.017,0.343,0.032l0.141,0.019 c0.021,0.003,0.041,0.004,0.062,0.004c0.246,0,0.462-0.185,0.495-0.437C19.232,31.125,20.504,30,22,30 c0.885,0,1.723,0.401,2.301,1.1c0.098,0.118,0.241,0.182,0.386,0.182c0.078,0,0.156-0.018,0.228-0.056 c0.209-0.107,0.314-0.346,0.254-0.573C25.054,30.218,25,29.852,25,29.5c0-2.481,2.019-4.5,4.5-4.5 c2.381,0,4.347,1.872,4.474,4.263c0.011,0.208,0.15,0.387,0.349,0.45c0.05,0.016,0.101,0.024,0.152,0.024 c0.15,0,0.296-0.069,0.392-0.192C35.638,28.563,36.779,28,38,28c2.206,0,4,1.794,4,4c0,0.117-0.017,0.23-0.032,0.343l-0.019,0.141 c-0.016,0.134,0.022,0.268,0.106,0.373c0.084,0.105,0.207,0.172,0.34,0.185C44.451,33.247,46,34.949,46,37c0,2.206-1.794,4-4,4 h-6.125c-0.276,0-0.5,0.224-0.5,0.5s0.224,0.5,0.5,0.5H42c2.757,0,5-2.243,5-5c0-2.397-1.689-4.413-4.003-4.877 C42.999,32.082,43,32.041,43,32c0-2.757-2.243-5-5-5c-1.176,0-2.293,0.416-3.183,1.164C34.219,25.76,32.055,24,29.5,24L29.5,24z"/><path fill="#472b29" d="M28,31c-1.403,0-2.609,0.999-2.913,2.341C24.72,33.119,24.301,33,23.875,33 c-1.202,0-2.198,0.897-2.353,2.068C21.319,35.022,21.126,35,20.937,35c-1.529,0-2.811,1.2-2.918,2.732 C18.01,37.87,18.114,37.99,18.251,38c0.006,0,0.012,0,0.018,0c0.13,0,0.24-0.101,0.249-0.232c0.089-1.271,1.151-2.268,2.419-2.268 c0.229,0,0.47,0.042,0.738,0.127c0.022,0.007,0.045,0.01,0.067,0.01c0.055,0,0.11-0.02,0.156-0.054 C21.962,35.537,22,35.455,22,35.375c0-1.034,0.841-1.875,1.875-1.875c0.447,0,0.885,0.168,1.231,0.473 c0.047,0.041,0.106,0.063,0.165,0.063c0.032,0,0.063-0.006,0.093-0.019c0.088-0.035,0.148-0.117,0.155-0.212 C25.623,32.512,26.712,31.5,28,31.5c0.208,0,0.425,0.034,0.682,0.107c0.023,0.007,0.047,0.01,0.07,0.01 c0.109,0,0.207-0.073,0.239-0.182c0.038-0.133-0.039-0.271-0.172-0.309C28.517,31.04,28.256,31,28,31L28,31z"/><path fill="#fff" d="M71.405,24H61.5c-0.276,0-0.5-0.224-0.5-0.5s0.224-0.5,0.5-0.5h9.905c0.276,0,0.5,0.224,0.5,0.5 S71.682,24,71.405,24z"/><path fill="#fff" d="M74.5,24h-1c-0.276,0-0.5-0.224-0.5-0.5s0.224-0.5,0.5-0.5h1c0.276,0,0.5,0.224,0.5,0.5 S74.777,24,74.5,24z"/><path fill="#fff" d="M79.491,26H70.5c-0.276,0-0.5-0.224-0.5-0.5s0.224-0.5,0.5-0.5h8.991c0.276,0,0.5,0.224,0.5,0.5 S79.767,26,79.491,26z"/><path fill="#fff" d="M68.5,26h-1c-0.276,0-0.5-0.224-0.5-0.5s0.224-0.5,0.5-0.5h1c0.276,0,0.5,0.224,0.5,0.5 S68.777,26,68.5,26z"/><path fill="#fff" d="M65.5,26h-2c-0.276,0-0.5-0.224-0.5-0.5s0.224-0.5,0.5-0.5h2c0.276,0,0.5,0.224,0.5,0.5 S65.777,26,65.5,26z"/><path fill="#fff" d="M71.5,28h-2c-0.276,0-0.5-0.224-0.5-0.5s0.224-0.5,0.5-0.5h2c0.276,0,0.5,0.224,0.5,0.5 S71.776,28,71.5,28z"/><path fill="#fff" d="M74.5,19c-0.177,0-0.823,0-1,0c-0.276,0-0.5,0.224-0.5,0.5c0,0.276,0.224,0.5,0.5,0.5 c0.177,0,0.823,0,1,0c0.276,0,0.5-0.224,0.5-0.5C75,19.224,74.776,19,74.5,19z"/><path fill="#fff" d="M74.5,21c-0.177,0-4.823,0-5,0c-0.276,0-0.5,0.224-0.5,0.5c0,0.276,0.224,0.5,0.5,0.5 c0.177,0,4.823,0,5,0c0.276,0,0.5-0.224,0.5-0.5C75,21.224,74.776,21,74.5,21z"/><path fill="#fff" d="M79.5,23c-0.177,0-2.823,0-3,0c-0.276,0-0.5,0.224-0.5,0.5c0,0.276,0.224,0.5,0.5,0.5 c0.177,0,2.823,0,3,0c0.276,0,0.5-0.224,0.5-0.5C80,23.224,79.776,23,79.5,23z"/><path fill="#fff" d="M30.5,76h-10c-0.276,0-0.5-0.224-0.5-0.5s0.224-0.5,0.5-0.5h10c0.276,0,0.5,0.224,0.5,0.5 S30.776,76,30.5,76z"/><path fill="#fff" d="M34.5,76h-2c-0.276,0-0.5-0.224-0.5-0.5s0.224-0.5,0.5-0.5h2c0.276,0,0.5,0.224,0.5,0.5 S34.776,76,34.5,76z"/><path fill="#fff" d="M39.5,78h-10c-0.276,0-0.5-0.224-0.5-0.5s0.224-0.5,0.5-0.5h10c0.276,0,0.5,0.224,0.5,0.5 S39.777,78,39.5,78z"/><path fill="#fff" d="M27.5,78h-1c-0.276,0-0.5-0.224-0.5-0.5s0.224-0.5,0.5-0.5h1c0.276,0,0.5,0.224,0.5,0.5 S27.776,78,27.5,78z"/><path fill="#fff" d="M24.47,78H22.5c-0.276,0-0.5-0.224-0.5-0.5s0.224-0.5,0.5-0.5h1.97c0.276,0,0.5,0.224,0.5,0.5 S24.746,78,24.47,78z"/><path fill="#fff" d="M33.5,74h-5c-0.276,0-0.5-0.224-0.5-0.5s0.224-0.5,0.5-0.5h5c0.276,0,0.5,0.224,0.5,0.5 S33.777,74,33.5,74z"/><path fill="#fff" d="M30.5,80h-2c-0.276,0-0.5-0.224-0.5-0.5s0.224-0.5,0.5-0.5h2c0.276,0,0.5,0.224,0.5,0.5 S30.776,80,30.5,80z"/><circle cx="52" cy="52" r="23.25" fill="#00a5a5"/><path fill="#472b29" d="M52,75.95c-13.206,0-23.95-10.744-23.95-23.95S38.794,28.05,52,28.05S75.95,38.794,75.95,52 S65.206,75.95,52,75.95z M52,29.45c-12.434,0-22.55,10.116-22.55,22.55S39.566,74.55,52,74.55S74.55,64.434,74.55,52 S64.434,29.45,52,29.45z"/><g><circle cx="52" cy="52" r="4.5" fill="#472b29"/><path fill="#472b29" d="M52,57.2c-2.867,0-5.2-2.333-5.2-5.2s2.333-5.2,5.2-5.2s5.2,2.333,5.2,5.2S54.867,57.2,52,57.2z M52,48.2c-2.095,0-3.8,1.705-3.8,3.8s1.705,3.8,3.8,3.8s3.8-1.705,3.8-3.8S54.095,48.2,52,48.2z"/></g><g><path fill="#472b29" d="M45.348,71.767c-0.027,0-0.054-0.004-0.081-0.013c-3.84-1.309-7.197-3.697-9.708-6.908 c-0.085-0.108-0.066-0.266,0.043-0.351c0.107-0.085,0.266-0.067,0.351,0.043c2.452,3.133,5.729,5.465,9.476,6.742 c0.131,0.045,0.201,0.187,0.156,0.317C45.549,71.701,45.452,71.767,45.348,71.767z"/></g><g><path fill="#472b29" d="M31.597,49.301c-0.012,0-0.024-0.001-0.036-0.002c-0.136-0.02-0.231-0.146-0.212-0.283 c0.572-3.994,2.286-7.715,4.958-10.763c0.091-0.104,0.249-0.114,0.353-0.023c0.104,0.091,0.114,0.249,0.023,0.353 c-2.607,2.974-4.28,6.606-4.838,10.504C31.826,49.211,31.719,49.301,31.597,49.301z"/></g><g><path fill="#472b29" d="M33.039,60.351c-0.097,0-0.189-0.057-0.23-0.152c-1.11-2.595-1.672-5.354-1.672-8.199 c0-0.138,0.112-0.25,0.25-0.25s0.25,0.112,0.25,0.25c0,2.777,0.549,5.47,1.632,8.002c0.054,0.127-0.005,0.274-0.132,0.328 C33.105,60.344,33.072,60.351,33.039,60.351z"/></g><g><path fill="#472b29" d="M64.728,71.592c-0.128,0-0.256-0.049-0.354-0.146l-8.348-8.347c-0.195-0.195-0.195-0.512,0-0.707 s0.512-0.195,0.707,0l8.348,8.347c0.195,0.195,0.195,0.512,0,0.707C64.984,71.543,64.856,71.592,64.728,71.592z"/></g><g><path fill="#472b29" d="M54.037,60.901c-0.128,0-0.256-0.049-0.354-0.146l-4.865-4.865c-0.195-0.195-0.195-0.512,0-0.707 s0.512-0.195,0.707,0l4.865,4.865c0.195,0.195,0.195,0.512,0,0.707C54.292,60.852,54.165,60.901,54.037,60.901z"/></g><g><path fill="#472b29" d="M54.829,48.964c-0.128,0-0.256-0.049-0.354-0.146L44.391,38.734c-0.195-0.195-0.195-0.512,0-0.707 s0.512-0.195,0.707,0l10.084,10.084c0.195,0.195,0.195,0.512,0,0.707C55.084,48.916,54.957,48.964,54.829,48.964z"/></g><g><path fill="#472b29" d="M42.838,36.974c-0.128,0-0.256-0.049-0.354-0.146l-3.566-3.566c-0.195-0.195-0.195-0.512,0-0.707 s0.512-0.195,0.707,0l3.566,3.566c0.195,0.195,0.195,0.512,0,0.707C43.094,36.925,42.966,36.974,42.838,36.974z"/></g><g><path fill="#472b29" d="M32.908,65.228c-0.128,0-0.256-0.049-0.354-0.146c-0.195-0.195-0.195-0.512,0-0.707l5.441-5.441 c0.195-0.195,0.512-0.195,0.707,0s0.195,0.512,0,0.707l-5.441,5.441C33.164,65.179,33.036,65.228,32.908,65.228z"/></g><g><path fill="#472b29" d="M40.63,57.505c-0.128,0-0.256-0.049-0.354-0.146c-0.195-0.195-0.195-0.512,0-0.707l7.834-7.834 c0.195-0.195,0.512-0.195,0.707,0s0.195,0.512,0,0.707l-7.834,7.834C40.886,57.457,40.758,57.505,40.63,57.505z"/></g><g><path fill="#472b29" d="M55.536,55.329c-0.128,0-0.256-0.049-0.354-0.146c-0.195-0.195-0.195-0.512,0-0.707l15.556-15.557 c0.195-0.195,0.512-0.195,0.707,0s0.195,0.512,0,0.707L55.889,55.182C55.792,55.28,55.664,55.329,55.536,55.329z"/></g><g><path fill="#472b29" d="M47.5,75c-0.276,0-0.5-0.224-0.5-0.5v-22c0-0.276,0.224-0.5,0.5-0.5s0.5,0.224,0.5,0.5v22 C48,74.776,47.776,75,47.5,75z"/></g><g><path fill="#472b29" d="M56.5,52c-0.276,0-0.5-0.224-0.5-0.5v-22c0-0.276,0.224-0.5,0.5-0.5s0.5,0.224,0.5,0.5v22 C57,51.776,56.776,52,56.5,52z"/></g><g><path fill="#472b29" d="M74.5,57h-22c-0.276,0-0.5-0.224-0.5-0.5s0.224-0.5,0.5-0.5h22c0.276,0,0.5,0.224,0.5,0.5 S74.776,57,74.5,57z"/></g><g><path fill="#472b29" d="M50.5,48H33.688c-0.276,0-0.5-0.224-0.5-0.5s0.224-0.5,0.5-0.5H50.5c0.276,0,0.5,0.224,0.5,0.5 S50.776,48,50.5,48z"/></g><g><path fill="#fdfcef" d="M82.5,61.5c0,0,1.567,0,3.5,0s3.5-1.567,3.5-3.5c0-1.781-1.335-3.234-3.055-3.455 C86.473,54.366,86.5,54.187,86.5,54c0-1.933-1.567-3.5-3.5-3.5c-1.032,0-1.95,0.455-2.59,1.165 c-0.384-1.808-1.987-3.165-3.91-3.165c-2.209,0-4,1.791-4,4c0,0.191,0.03,0.374,0.056,0.558C72.128,52.714,71.592,52.5,71,52.5 c-1.228,0-2.245,0.887-2.455,2.055C68.366,54.527,68.187,54.5,68,54.5c-1.933,0-3.5,1.567-3.5,3.5s1.567,3.5,3.5,3.5s7.5,0,7.5,0 V62h7V61.5z"/><path fill="#472b29" d="M84.25,57C84.112,57,84,56.888,84,56.75c0-1.223,0.995-2.218,2.218-2.218 c0.034,0.009,0.737-0.001,1.244,0.136c0.133,0.036,0.212,0.173,0.176,0.306c-0.036,0.134-0.173,0.213-0.306,0.176 c-0.444-0.12-1.1-0.12-1.113-0.118c-0.948,0-1.719,0.771-1.719,1.718C84.5,56.888,84.388,57,84.25,57z"/><circle cx="77.5" cy="61.5" r=".5" fill="#472b29"/><path fill="#472b29" d="M86,62h-3.5c-0.276,0-0.5-0.224-0.5-0.5s0.224-0.5,0.5-0.5H86c1.654,0,3-1.346,3-3 c0-1.496-1.125-2.768-2.618-2.959c-0.134-0.018-0.255-0.088-0.336-0.196s-0.115-0.244-0.094-0.377C85.975,54.314,86,54.16,86,54 c0-1.654-1.346-3-3-3c-0.85,0-1.638,0.355-2.219,1c-0.125,0.139-0.321,0.198-0.5,0.148c-0.182-0.049-0.321-0.195-0.36-0.379 C79.58,50.165,78.141,49,76.5,49c-1.93,0-3.5,1.57-3.5,3.5c0,0.143,0.021,0.28,0.041,0.418c0.029,0.203-0.063,0.438-0.242,0.54 c-0.179,0.102-0.396,0.118-0.556-0.01C71.878,53.155,71.449,53,71,53c-0.966,0-1.792,0.691-1.963,1.644 c-0.048,0.267-0.296,0.446-0.569,0.405C68.314,55.025,68.16,55,68,55c-1.654,0-3,1.346-3,3s1.346,3,3,3h7.5 c0.276,0,0.5,0.224,0.5,0.5S75.776,62,75.5,62H68c-2.206,0-4-1.794-4-4s1.794-4,4-4c0.059,0,0.116,0.002,0.174,0.006 C68.588,52.82,69.711,52,71,52c0.349,0,0.689,0.061,1.011,0.18C72.176,49.847,74.126,48,76.5,48c1.831,0,3.466,1.127,4.153,2.774 C81.333,50.276,82.155,50,83,50c2.206,0,4,1.794,4,4c0,0.048-0.001,0.095-0.004,0.142C88.739,54.59,90,56.169,90,58 C90,60.206,88.206,62,86,62z"/><path fill="#472b29" d="M80.5,61c-0.159,0-0.841,0-1,0c-0.276,0-0.5,0.224-0.5,0.5c0,0.276,0.224,0.5,0.5,0.5 c0.159,0,0.841,0,1,0c0.276,0,0.5-0.224,0.5-0.5C81,61.224,80.776,61,80.5,61z"/></g></svg>