<?xml version="1.0" encoding="utf-8"?>
<svg xmlns="http://www.w3.org/2000/svg" viewBox="0 0 100 100" fill="#ffffff"><path d="M 51.826172 10 C 50.277167 10 49 11.277167 49 12.826172 L 49 39.470703 C 45.744567 32.695768 38.836534 28 30.826172 28 L 30.173828 28 C 19.043444 28 10 37.043444 10 48.173828 C 10 49.722833 11.277167 51 12.826172 51 L 39.470703 51 C 32.695768 54.255433 28 61.163466 28 69.173828 L 28 69.826172 C 28 80.956556 37.043444 90 48.173828 90 C 49.722833 90 51 88.722833 51 87.173828 L 51 60.529297 C 54.255433 67.304232 61.163466 72 69.173828 72 L 69.826172 72 C 80.956556 72 90 62.956556 90 51.826172 C 90 50.277167 88.722833 49 87.173828 49 L 60.529297 49 C 67.304232 45.744567 72 38.836534 72 30.826172 L 72 30.173828 C 72 19.043444 62.956556 10 51.826172 10 z M 51.826172 12 C 61.875788 12 70 20.124212 70 30.173828 L 70 30.826172 C 70 40.875788 61.875788 49 51.826172 49 L 51 49 L 51 48.173828 L 51 12.826172 C 51 12.359177 51.359177 12 51.826172 12 z M 54.492188 15.242188 A 0.50005 0.50005 0 0 0 54.408203 16.236328 C 58.018867 16.90361 61.157413 18.944872 63.253906 21.796875 A 0.50005 0.50005 0 1 0 64.058594 21.205078 C 61.815087 18.153081 58.459133 15.966671 54.591797 15.251953 A 0.50005 0.50005 0 0 0 54.492188 15.242188 z M 65.349609 23.994141 A 0.50005 0.50005 0 0 0 64.898438 24.695312 C 65.608206 26.381378 66 28.231158 66 30.173828 L 66 30.501953 A 0.50005 0.50005 0 1 0 67 30.501953 L 67 30.173828 C 67 28.096498 66.580544 26.112576 65.820312 24.306641 A 0.50005 0.50005 0 0 0 65.349609 23.994141 z M 30.173828 30 L 30.826172 30 C 40.875788 30 49 38.124212 49 48.173828 L 49 49 L 48.173828 49 L 12.826172 49 C 12.359177 49 12 48.640823 12 48.173828 C 12 38.124212 20.124212 30 30.173828 30 z M 66.242188 32.994141 A 0.50005 0.50005 0 0 0 65.763672 33.410156 C 65.577262 34.41754 65.284576 35.386612 64.896484 36.306641 A 0.50022961 0.50022961 0 0 0 65.818359 36.695312 C 66.234268 35.709342 66.548456 34.670413 66.748047 33.591797 A 0.50005 0.50005 0 0 0 66.242188 32.994141 z M 32.113281 33.056641 A 0.50005 0.50005 0 0 0 32.076172 34.054688 C 38.228297 34.594887 43.180921 39.121906 44.548828 45 L 36.5 45 A 0.50005 0.50005 0 1 0 36.5 46 L 45.255859 46 A 0.50005 0.50005 0 0 0 45.748047 45.408203 C 44.522396 38.784518 38.982418 33.657294 32.164062 33.058594 A 0.50005 0.50005 0 0 0 32.113281 33.056641 z M 27.035156 33.333984 A 0.50005 0.50005 0 0 0 27.013672 33.335938 A 0.50005 0.50005 0 0 0 26.929688 33.347656 C 24.817632 33.809991 22.868773 34.713337 21.185547 35.955078 A 0.50005 0.50005 0 1 0 21.779297 36.759766 C 23.35207 35.599507 25.172586 34.757837 27.144531 34.326172 A 0.50005 0.50005 0 0 0 27.035156 33.333984 z M 63.667969 38.994141 A 0.50005 0.50005 0 0 0 63.251953 39.203125 C 61.828808 41.138332 59.926414 42.702776 57.722656 43.714844 A 0.50005 0.50005 0 1 0 58.140625 44.623047 C 60.500867 43.539115 62.535739 41.867668 64.058594 39.796875 A 0.50005 0.50005 0 0 0 63.667969 38.994141 z M 18.199219 39.201172 A 0.50005 0.50005 0 0 0 17.787109 39.417969 C 17.33115 40.061068 16.923036 40.741473 16.570312 41.453125 C 16.339803 41.918281 16.132287 42.396468 15.949219 42.886719 A 0.5002831 0.5002831 0 1 0 16.886719 43.236328 C 17.05765 42.778579 17.251307 42.331329 17.466797 41.896484 C 17.796074 41.232136 18.177475 40.596994 18.603516 39.996094 A 0.50005 0.50005 0 0 0 18.199219 39.201172 z M 48.173828 51 L 49 51 L 49 51.826172 L 49 87.173828 C 49 87.640823 48.640823 88 48.173828 88 C 38.124212 88 30 79.875788 30 69.826172 L 30 69.173828 C 30 59.124212 38.124212 51 48.173828 51 z M 51 51 L 51.826172 51 L 87.173828 51 C 87.640823 51 88 51.359177 88 51.826172 C 88 61.875788 79.875788 70 69.826172 70 L 69.173828 70 C 59.124212 70 51 61.875788 51 51.826172 L 51 51 z M 57.007812 54 A 0.50005 0.50005 0 1 0 57.007812 55 L 61.5 55 A 0.50005 0.50005 0 1 0 61.5 54 L 57.007812 54 z M 64.5 54 A 0.50005 0.50005 0 1 0 64.5 55 L 67.5 55 A 0.50005 0.50005 0 1 0 67.5 54 L 64.5 54 z M 70.5 54 A 0.50005 0.50005 0 1 0 70.5 55 L 72.5 55 A 0.50005 0.50005 0 1 0 72.5 54 L 70.5 54 z M 76.5 54 A 0.50005 0.50005 0 1 0 76.5 55 L 83.552734 55 C 82.91759 57.732198 81.570545 60.200009 79.605469 62.076172 A 0.50006848 0.50006848 0 1 0 80.296875 62.798828 C 82.558711 60.639333 84.156428 57.790885 84.748047 54.591797 A 0.50005 0.50005 0 0 0 84.255859 54 L 76.5 54 z M 34.255859 64.033203 A 0.50005 0.50005 0 0 0 33.775391 64.380859 C 33.272734 65.887795 33 67.500474 33 69.173828 L 33 69.826172 C 33 71.034522 33.142312 72.210669 33.410156 73.337891 A 0.50005 0.50005 0 1 0 34.382812 73.105469 C 34.132658 72.052691 34 70.955822 34 69.826172 L 34 69.173828 C 34 67.609183 34.255266 66.10433 34.724609 64.697266 A 0.50005 0.50005 0 0 0 34.255859 64.033203 z M 34.873047 75.582031 A 0.50005 0.50005 0 0 0 34.451172 76.302734 C 34.598944 76.614812 34.758771 76.922046 34.927734 77.222656 A 0.50005 0.50005 0 1 0 35.798828 76.732422 C 35.641792 76.453032 35.493697 76.164969 35.355469 75.873047 A 0.50005 0.50005 0 0 0 34.873047 75.582031 z M 37.082031 78.941406 A 0.50005 0.50005 0 0 0 36.726562 79.775391 C 37.826349 81.038491 39.12969 82.119915 40.587891 82.964844 A 0.50014708 0.50014708 0 0 0 41.089844 82.099609 C 39.728044 81.310538 38.508683 80.300041 37.480469 79.119141 A 0.50005 0.50005 0 0 0 37.082031 78.941406 z" fill="#ffffff"/></svg>
