<svg xmlns="http://www.w3.org/2000/svg" viewBox="0 0 100 100"><path fill="#c7ede6" d="M87.215,56.71C88.35,54.555,89,52.105,89,49.5c0-6.621-4.159-12.257-10.001-14.478 C78.999,35.015,79,35.008,79,35c0-11.598-9.402-21-21-21c-9.784,0-17.981,6.701-20.313,15.757C36.211,29.272,34.638,29,33,29 c-7.692,0-14.023,5.793-14.89,13.252C12.906,43.353,9,47.969,9,53.5C9,59.851,14.149,65,20.5,65c0.177,0,0.352-0.012,0.526-0.022 C21.022,65.153,21,65.324,21,65.5C21,76.822,30.178,86,41.5,86c6.437,0,12.175-2.972,15.934-7.614C59.612,80.611,62.64,82,66,82 c4.65,0,8.674-2.65,10.666-6.518C77.718,75.817,78.837,76,80,76c6.075,0,11-4.925,11-11C91,61.689,89.53,58.727,87.215,56.71z"/><path fill="#fdfcef" d="M62.125,36.5c0,0-3.64,0-6.125,0s-4.5-2.015-4.5-4.5c0-2.333,1.782-4.229,4.055-4.455 C55.533,27.364,55.5,27.187,55.5,27c0-2.485,2.015-4.5,4.5-4.5c1.438,0,2.703,0.686,3.527,1.736 C63.667,21.6,65.829,19.5,68.5,19.5c2.761,0,5,2.239,5,5c0,0.446-0.077,0.87-0.187,1.282c0.642-0.777,1.6-1.282,2.687-1.282 c1.781,0,3.234,1.335,3.455,3.055C79.636,27.533,79.813,27.5,80,27.5c2.485,0,4.5,2.015,4.5,4.5s-2.015,4.5-4.5,4.5s-9.5,0-9.5,0 h-5.375V37h-3V36.5z"/><path fill="#472b29" d="M68.5,19c3.033,0,5.5,2.467,5.5,5.5c0,0.016,0,0.031,0,0.047C74.602,24.192,75.29,24,76,24 c1.831,0,3.411,1.261,3.858,3.005C79.905,27.002,79.952,27,80,27c2.757,0,5,2.243,5,5s-2.243,5-5,5H65.125 c-0.276,0-0.5-0.224-0.5-0.5s0.224-0.5,0.5-0.5H80c2.206,0,4-1.794,4-4s-1.794-4-4-4c-0.117,0-0.23,0.017-0.343,0.032 l-0.141,0.019c-0.021,0.003-0.041,0.004-0.062,0.004c-0.246,0-0.462-0.185-0.495-0.437C78.768,26.125,77.496,25,76,25 c-0.885,0-1.723,0.401-2.301,1.1c-0.098,0.118-0.241,0.182-0.386,0.182c-0.078,0-0.156-0.018-0.228-0.056 c-0.209-0.107-0.314-0.346-0.254-0.573C72.946,25.218,73,24.852,73,24.5c0-2.481-2.019-4.5-4.5-4.5 c-2.381,0-4.347,1.872-4.474,4.263c-0.011,0.208-0.15,0.387-0.349,0.45c-0.05,0.016-0.101,0.024-0.152,0.024 c-0.15,0-0.296-0.069-0.392-0.192C62.362,23.563,61.221,23,60,23c-2.206,0-4,1.794-4,4c0,0.117,0.017,0.23,0.032,0.343 l0.019,0.141c0.016,0.134-0.022,0.268-0.106,0.373c-0.084,0.105-0.207,0.172-0.34,0.185C53.549,28.247,52,29.949,52,32 c0,2.206,1.794,4,4,4h6.125c0.276,0,0.5,0.224,0.5,0.5s-0.224,0.5-0.5,0.5H56c-2.757,0-5-2.243-5-5 c0-2.397,1.689-4.413,4.003-4.877C55.001,27.082,55,27.041,55,27c0-2.757,2.243-5,5-5c1.176,0,2.293,0.416,3.183,1.164 C63.781,20.76,65.945,19,68.5,19L68.5,19z"/><path fill="#472b29" d="M70,26c1.403,0,2.609,0.999,2.913,2.341C73.28,28.119,73.699,28,74.125,28 c1.202,0,2.198,0.897,2.353,2.068C76.681,30.022,76.874,30,77.063,30c1.529,0,2.811,1.2,2.918,2.732 C79.99,32.87,79.886,32.99,79.749,33c-0.006,0-0.012,0-0.018,0c-0.13,0-0.24-0.101-0.249-0.232 c-0.089-1.271-1.151-2.268-2.419-2.268c-0.229,0-0.47,0.042-0.738,0.127c-0.022,0.007-0.045,0.01-0.067,0.01 c-0.055,0-0.11-0.02-0.156-0.054C76.038,30.537,76,30.455,76,30.375c0-1.034-0.841-1.875-1.875-1.875 c-0.447,0-0.885,0.168-1.231,0.473c-0.047,0.041-0.106,0.063-0.165,0.063c-0.032,0-0.063-0.006-0.093-0.019 c-0.088-0.035-0.148-0.117-0.155-0.212C72.377,27.512,71.288,26.5,70,26.5c-0.208,0-0.425,0.034-0.682,0.107 c-0.023,0.007-0.047,0.01-0.07,0.01c-0.109,0-0.207-0.073-0.239-0.182c-0.038-0.133,0.039-0.271,0.172-0.309 C69.483,26.04,69.744,26,70,26L70,26z"/><path fill="#fff" d="M15.405,46H5.5C5.224,46,5,45.776,5,45.5S5.224,45,5.5,45h9.905c0.276,0,0.5,0.224,0.5,0.5 S15.682,46,15.405,46z"/><path fill="#fff" d="M18.5,46h-1c-0.276,0-0.5-0.224-0.5-0.5s0.224-0.5,0.5-0.5h1c0.276,0,0.5,0.224,0.5,0.5 S18.777,46,18.5,46z"/><path fill="#fff" d="M23.491,48H14.5c-0.276,0-0.5-0.224-0.5-0.5s0.224-0.5,0.5-0.5h8.991c0.276,0,0.5,0.224,0.5,0.5 S23.767,48,23.491,48z"/><path fill="#fff" d="M12.5,48h-1c-0.276,0-0.5-0.224-0.5-0.5s0.224-0.5,0.5-0.5h1c0.276,0,0.5,0.224,0.5,0.5 S12.777,48,12.5,48z"/><path fill="#fff" d="M9.5,48h-2C7.224,48,7,47.776,7,47.5S7.224,47,7.5,47h2c0.276,0,0.5,0.224,0.5,0.5 S9.777,48,9.5,48z"/><path fill="#fff" d="M15.5,50h-2c-0.276,0-0.5-0.224-0.5-0.5s0.224-0.5,0.5-0.5h2c0.276,0,0.5,0.224,0.5,0.5 S15.776,50,15.5,50z"/><path fill="#fff" d="M18.5,41c-0.177,0-0.823,0-1,0c-0.276,0-0.5,0.224-0.5,0.5c0,0.276,0.224,0.5,0.5,0.5 c0.177,0,0.823,0,1,0c0.276,0,0.5-0.224,0.5-0.5C19,41.224,18.776,41,18.5,41z"/><path fill="#fff" d="M18.5,43c-0.177,0-4.823,0-5,0c-0.276,0-0.5,0.224-0.5,0.5c0,0.276,0.224,0.5,0.5,0.5 c0.177,0,4.823,0,5,0c0.276,0,0.5-0.224,0.5-0.5C19,43.224,18.776,43,18.5,43z"/><path fill="#fff" d="M23.5,45c-0.177,0-2.823,0-3,0c-0.276,0-0.5,0.224-0.5,0.5c0,0.276,0.224,0.5,0.5,0.5 c0.177,0,2.823,0,3,0c0.276,0,0.5-0.224,0.5-0.5C24,45.224,23.776,45,23.5,45z"/><g><path fill="#fff" d="M86.5,69h-10c-0.276,0-0.5-0.224-0.5-0.5s0.224-0.5,0.5-0.5h10c0.276,0,0.5,0.224,0.5,0.5 S86.776,69,86.5,69z"/><path fill="#fff" d="M90.5,69h-2c-0.276,0-0.5-0.224-0.5-0.5s0.224-0.5,0.5-0.5h2c0.276,0,0.5,0.224,0.5,0.5 S90.776,69,90.5,69z"/><path fill="#fff" d="M95.5,71h-10c-0.276,0-0.5-0.224-0.5-0.5s0.224-0.5,0.5-0.5h10c0.276,0,0.5,0.224,0.5,0.5 S95.777,71,95.5,71z"/><path fill="#fff" d="M83.5,71h-1c-0.276,0-0.5-0.224-0.5-0.5s0.224-0.5,0.5-0.5h1c0.276,0,0.5,0.224,0.5,0.5 S83.776,71,83.5,71z"/><path fill="#fff" d="M80.375,71H78.5c-0.276,0-0.5-0.224-0.5-0.5s0.224-0.5,0.5-0.5h1.875c0.276,0,0.5,0.224,0.5,0.5 S80.651,71,80.375,71z"/><path fill="#fff" d="M89.5,67h-5c-0.276,0-0.5-0.224-0.5-0.5s0.224-0.5,0.5-0.5h5c0.276,0,0.5,0.224,0.5,0.5 S89.777,67,89.5,67z"/><path fill="#fff" d="M86.5,73h-2c-0.276,0-0.5-0.224-0.5-0.5s0.224-0.5,0.5-0.5h2c0.276,0,0.5,0.224,0.5,0.5 S86.776,73,86.5,73z"/></g><g><path fill="#ef9922" d="M52.254,49.5h-0.509c-4.002,0-7.246-3.244-7.246-7.246v-9.509c0-4.002,3.244-7.246,7.246-7.246 h0.509c4.002,0,7.246,3.244,7.246,7.246v9.509C59.5,46.256,56.256,49.5,52.254,49.5z"/><path fill="#78a0cf" d="M52.254,76.5h-0.509c-4.002,0-7.246-3.244-7.246-7.246v-9.509c0-4.002,3.244-7.246,7.246-7.246 h0.509c4.002,0,7.246,3.244,7.246,7.246v9.509C59.5,73.256,56.256,76.5,52.254,76.5z"/><path fill="#8889b9" d="M50.5,50.746v0.509c0,4.002-3.244,7.246-7.246,7.246h-9.509c-4.002,0-7.246-3.244-7.246-7.246 v-0.509c0-4.002,3.244-7.246,7.246-7.246h9.509C47.256,43.5,50.5,46.744,50.5,50.746z"/><path fill="#88ae45" d="M77.5,50.746v0.509c0,4.002-3.244,7.246-7.246,7.246h-9.509c-4.002,0-7.246-3.244-7.246-7.246 v-0.509c0-4.002,3.244-7.246,7.246-7.246h9.509C74.256,43.5,77.5,46.744,77.5,50.746z"/><path fill="#ffce00" d="M53.24,50.119l-0.36-0.36c-2.83-2.83-2.83-7.417,0-10.247l6.724-6.724 c2.83-2.83,7.417-2.83,10.247,0l0.36,0.36c2.83,2.83,2.83,7.417,0,10.247l-6.724,6.724C60.658,52.949,56.07,52.949,53.24,50.119 z"/><path fill="#a1a1ca" d="M34.149,69.211l-0.36-0.36c-2.83-2.83-2.83-7.417,0-10.247l6.724-6.724 c2.83-2.83,7.417-2.83,10.247,0l0.36,0.36c2.83,2.83,2.83,7.417,0,10.247l-6.724,6.724 C41.566,72.041,36.978,72.041,34.149,69.211z"/><path fill="#ee3e54" d="M51.119,49.76l-0.36,0.36c-2.83,2.83-7.417,2.83-10.247,0l-6.724-6.724 c-2.83-2.83-2.83-7.417,0-10.247l0.36-0.36c2.83-2.83,7.417-2.83,10.247,0l6.724,6.724C53.949,42.342,53.949,46.93,51.119,49.76 z"/><path fill="#00a5a5" d="M70.211,68.851l-0.36,0.36c-2.83,2.83-7.417,2.83-10.247,0l-6.724-6.724 c-2.83-2.83-2.83-7.417,0-10.247l0.36-0.36c2.83-2.83,7.417-2.83,10.247,0l6.724,6.724 C73.041,61.434,73.041,66.022,70.211,68.851z"/><path fill="#472b29" d="M52.254,49.75h-0.508c-4.133,0-7.496-3.363-7.496-7.496V35c0-0.138,0.112-0.25,0.25-0.25 s0.25,0.112,0.25,0.25v7.254c0,3.857,3.139,6.996,6.996,6.996h0.508c3.857,0,6.996-3.138,6.996-6.996V40 c0-0.138,0.112-0.25,0.25-0.25s0.25,0.112,0.25,0.25v2.254C59.75,46.387,56.388,49.75,52.254,49.75z"/><path fill="#472b29" d="M59.5,37.938c-0.138,0-0.25-0.112-0.25-0.25v-4.942c0-3.857-3.139-6.996-6.996-6.996h-0.508 c-3.278,0-6.082,2.227-6.817,5.416c-0.031,0.135-0.163,0.219-0.3,0.188c-0.135-0.031-0.218-0.165-0.188-0.3 c0.788-3.417,3.792-5.804,7.304-5.804h0.508c4.134,0,7.496,3.363,7.496,7.496v4.942C59.75,37.826,59.638,37.938,59.5,37.938z"/><path fill="#472b29" d="M52.254,76.75h-0.508c-4.133,0-7.496-3.363-7.496-7.496v-9.509c0-4.133,3.363-7.496,7.496-7.496 h0.508c4.134,0,7.496,3.363,7.496,7.496v9.509C59.75,73.387,56.388,76.75,52.254,76.75z M51.746,52.75 c-3.857,0-6.996,3.138-6.996,6.996v9.509c0,3.857,3.139,6.996,6.996,6.996h0.508c3.857,0,6.996-3.138,6.996-6.996v-9.509 c0-3.857-3.139-6.996-6.996-6.996H51.746z"/><g><path fill="#472b29" d="M43.254,58.75h-2.567c-0.138,0-0.25-0.112-0.25-0.25s0.112-0.25,0.25-0.25h2.567 c3.857,0,6.996-3.138,6.996-6.996v-0.509c0-3.857-3.138-6.996-6.996-6.996h-9.509c-3.857,0-6.996,3.138-6.996,6.996v0.509 c0,3.857,3.138,6.996,6.996,6.996h3.879c0.138,0,0.25,0.112,0.25,0.25s-0.112,0.25-0.25,0.25h-3.879 c-4.133,0-7.496-3.363-7.496-7.496v-0.509c0-4.133,3.362-7.496,7.496-7.496h9.509c4.133,0,7.496,3.363,7.496,7.496v0.509 C50.75,55.387,47.388,58.75,43.254,58.75z"/></g><g><path fill="#472b29" d="M64.438,58.75h-3.691c-4.134,0-7.496-3.363-7.496-7.496v-0.509c0-4.133,3.362-7.496,7.496-7.496 h6.691c0.138,0,0.25,0.112,0.25,0.25s-0.112,0.25-0.25,0.25h-6.691c-3.857,0-6.996,3.138-6.996,6.996v0.509 c0,3.857,3.139,6.996,6.996,6.996h3.691c0.138,0,0.25,0.112,0.25,0.25S64.575,58.75,64.438,58.75z"/></g><g><path fill="#472b29" d="M70.254,58.75H67c-0.138,0-0.25-0.112-0.25-0.25s0.112-0.25,0.25-0.25h3.254 c3.857,0,6.996-3.138,6.996-6.996v-0.509c0-3.857-3.139-6.996-6.996-6.996c-0.138,0-0.25-0.112-0.25-0.25s0.112-0.25,0.25-0.25 c4.134,0,7.496,3.363,7.496,7.496v0.509C77.75,55.387,74.388,58.75,70.254,58.75z"/></g><g><path fill="#472b29" d="M58.364,52.491c-2.002,0-3.885-0.78-5.301-2.195l-0.359-0.36 c-1.866-1.866-2.616-4.615-1.959-7.173c0.034-0.134,0.167-0.215,0.305-0.18c0.134,0.034,0.214,0.171,0.18,0.304 c-0.614,2.388,0.087,4.954,1.828,6.695l0.359,0.36c1.321,1.321,3.078,2.049,4.947,2.049c1.868,0,3.625-0.728,4.946-2.049 l6.724-6.724c1.321-1.321,2.049-3.078,2.049-4.947c0-1.868-0.728-3.625-2.049-4.947l-0.359-0.36 c-1.321-1.321-3.078-2.049-4.947-2.049c-1.868,0-3.625,0.728-4.946,2.049l-6.724,6.723c-0.098,0.098-0.256,0.098-0.354,0 s-0.098-0.256,0-0.354l6.724-6.723c1.415-1.416,3.298-2.196,5.3-2.196s3.885,0.78,5.301,2.196l0.359,0.36 c1.416,1.416,2.195,3.298,2.195,5.3c0,2.002-0.779,3.885-2.195,5.3l-6.724,6.724C62.249,51.712,60.366,52.491,58.364,52.491z"/></g><g><path fill="#472b29" d="M39.272,71.583c-2.002,0-3.885-0.78-5.3-2.196l-0.359-0.36c-1.416-1.416-2.195-3.298-2.195-5.3 c0-2.002,0.78-3.885,2.195-5.3l6.724-6.724c2.923-2.923,7.678-2.922,10.6,0l0.36,0.36c2.06,2.06,2.74,5.157,1.735,7.892 c-0.048,0.13-0.189,0.197-0.32,0.148c-0.13-0.048-0.196-0.191-0.148-0.321c0.938-2.552,0.302-5.443-1.62-7.366l-0.36-0.36 c-1.321-1.321-3.078-2.049-4.947-2.049c-1.868,0-3.625,0.728-4.946,2.049l-6.724,6.724c-1.321,1.321-2.049,3.078-2.049,4.947 c0,1.868,0.728,3.625,2.049,4.947l0.359,0.36c1.321,1.321,3.078,2.049,4.947,2.049s3.625-0.728,4.947-2.049l6.724-6.723 c0.098-0.098,0.256-0.098,0.354,0s0.098,0.256,0,0.354l-6.724,6.723C43.157,70.803,41.274,71.583,39.272,71.583z"/></g><g><path fill="#472b29" d="M45.636,52.488c-1.92,0-3.839-0.73-5.3-2.192l-6.724-6.724c-2.922-2.923-2.922-7.678,0-10.6 l0.359-0.36c1.416-1.416,3.298-2.196,5.3-2.196s3.885,0.78,5.3,2.196l6.724,6.723c1.416,1.416,2.196,3.298,2.196,5.3 c0,2.002-0.78,3.885-2.196,5.3l-0.36,0.36C49.475,51.757,47.555,52.488,45.636,52.488z M39.272,30.917 c-1.869,0-3.625,0.728-4.947,2.049l-0.359,0.36c-2.728,2.728-2.728,7.166,0,9.893l6.724,6.724 c1.321,1.321,3.078,2.049,4.946,2.049c1.869,0,3.625-0.728,4.947-2.049l0.36-0.36c1.321-1.321,2.05-3.078,2.05-4.947 c0-1.868-0.729-3.625-2.05-4.947l-6.724-6.723C42.897,31.645,41.141,30.917,39.272,30.917z"/></g><g><path fill="#472b29" d="M64.728,71.583c-2.002,0-3.885-0.78-5.3-2.196l-6.724-6.723c-2.922-2.923-2.922-7.678,0-10.601 l0.359-0.36c1.416-1.416,3.299-2.195,5.301-2.195s3.885,0.78,5.3,2.195l6.724,6.724c1.416,1.416,2.196,3.298,2.196,5.3 c0,2.002-0.78,3.884-2.196,5.3l-0.359,0.36C68.612,70.803,66.729,71.583,64.728,71.583z M58.364,50.009 c-1.869,0-3.626,0.728-4.947,2.049l-0.359,0.36c-2.728,2.728-2.728,7.166,0,9.894l6.724,6.723 c1.321,1.321,3.078,2.049,4.946,2.049c1.869,0,3.626-0.728,4.947-2.049l0.359-0.36c1.321-1.321,2.05-3.078,2.05-4.947 c0-1.869-0.729-3.625-2.05-4.947l-6.724-6.724C61.989,50.736,60.232,50.009,58.364,50.009z"/></g></g><g><path fill="#fdfcef" d="M22.5,75.5c0,0-1.567,0-3.5,0s-3.5-1.567-3.5-3.5c0-1.781,1.335-3.234,3.055-3.455 C18.527,68.366,18.5,68.187,18.5,68c0-1.933,1.567-3.5,3.5-3.5c1.032,0,1.95,0.455,2.59,1.165 c0.384-1.808,1.987-3.165,3.91-3.165c2.209,0,4,1.791,4,4c0,0.191-0.03,0.374-0.056,0.558C32.872,66.714,33.408,66.5,34,66.5 c1.228,0,2.245,0.887,2.455,2.055C36.634,68.527,36.813,68.5,37,68.5c1.933,0,3.5,1.567,3.5,3.5s-1.567,3.5-3.5,3.5s-7.5,0-7.5,0 V76h-7V75.5z"/><path fill="#472b29" d="M20.75,71c0.138,0,0.25-0.112,0.25-0.25c0-1.223-0.995-2.218-2.218-2.218 c-0.034,0.009-0.737-0.001-1.244,0.136c-0.133,0.036-0.212,0.173-0.176,0.306c0.036,0.134,0.173,0.213,0.306,0.176 c0.444-0.12,1.1-0.12,1.113-0.118c0.948,0,1.719,0.771,1.719,1.718C20.5,70.888,20.612,71,20.75,71z"/><circle cx="27.5" cy="75.5" r=".5" fill="#472b29"/><path fill="#472b29" d="M19,76h3.5c0.276,0,0.5-0.224,0.5-0.5S22.776,75,22.5,75H19c-1.654,0-3-1.346-3-3 c0-1.496,1.125-2.768,2.618-2.959c0.134-0.018,0.255-0.088,0.336-0.196s0.115-0.244,0.094-0.377C19.025,68.314,19,68.16,19,68 c0-1.654,1.346-3,3-3c0.85,0,1.638,0.355,2.219,1c0.125,0.139,0.321,0.198,0.5,0.148c0.182-0.049,0.321-0.195,0.36-0.379 C25.42,64.165,26.859,63,28.5,63c1.93,0,3.5,1.57,3.5,3.5c0,0.143-0.021,0.28-0.041,0.418c-0.029,0.203,0.063,0.438,0.242,0.54 c0.179,0.102,0.396,0.118,0.556-0.01C33.122,67.155,33.551,67,34,67c0.966,0,1.792,0.691,1.963,1.644 c0.048,0.267,0.296,0.446,0.569,0.405C36.686,69.025,36.84,69,37,69c1.654,0,3,1.346,3,3s-1.346,3-3,3h-7.5 c-0.276,0-0.5,0.224-0.5,0.5s0.224,0.5,0.5,0.5H37c2.206,0,4-1.794,4-4s-1.794-4-4-4c-0.059,0-0.116,0.002-0.174,0.006 C36.412,66.82,35.289,66,34,66c-0.349,0-0.689,0.061-1.011,0.18C32.824,63.847,30.874,62,28.5,62 c-1.831,0-3.466,1.127-4.153,2.774C23.667,64.276,22.845,64,22,64c-2.206,0-4,1.794-4,4c0,0.048,0.001,0.095,0.004,0.142 C16.261,68.59,15,70.169,15,72C15,74.206,16.794,76,19,76z"/><path fill="#472b29" d="M24.5,75c0.159,0,0.841,0,1,0c0.276,0,0.5,0.224,0.5,0.5c0,0.276-0.224,0.5-0.5,0.5 c-0.159,0-0.841,0-1,0c-0.276,0-0.5-0.224-0.5-0.5C24,75.224,24.224,75,24.5,75z"/></g></svg>