<?xml version="1.0" encoding="utf-8"?>
<svg xmlns="http://www.w3.org/2000/svg" viewBox="0 0 50 50" fill="#71fff6"><path d="M 25 3 C 21.384027 3 17.974064 3.8956923 14.972656 5.4414062 A 2.0002 2.0002 0 1 0 16.804688 8.9960938 C 19.271279 7.7258076 22.041973 7 25 7 C 31.326752 7 36.859927 10.260951 40.066406 15.177734 A 2.0002 2.0002 0 0 0 38.367188 18.796875 L 44.757812 21.998047 L 47.646484 16.146484 A 2.0002 2.0002 0 0 0 45.951172 13.238281 A 2.0002 2.0002 0 0 0 44.148438 14.214844 C 40.372486 7.5242895 33.210929 3 25 3 z M 12.521484 9.3886719 L 6.0097656 9.8144531 A 2.0003151 2.0003151 0 0 0 6.0878906 13.808594 C 2.1805187 20.424565 1.8419065 28.888383 5.9472656 36 C 7.7556894 39.131741 10.235514 41.636284 13.074219 43.462891 A 2.0002 2.0002 0 1 0 15.238281 40.099609 C 12.904986 38.598216 10.889732 36.562259 9.4101562 34 C 6.247246 28.520965 6.3060935 22.10055 8.9609375 16.865234 A 2.0002 2.0002 0 0 0 12.943359 16.525391 L 12.521484 9.3886719 z M 45.021484 23.972656 A 2.0002 2.0002 0 0 0 42.957031 25.904297 C 42.823484 28.676315 42.067303 31.438025 40.587891 34 C 37.425126 39.478782 31.835803 42.63995 25.974609 42.958984 A 2.0002 2.0002 0 0 0 24.759766 39.332031 A 2.0002 2.0002 0 0 0 23.689453 39.677734 L 17.720703 43.613281 L 21.34375 49.039062 A 2.0002262 2.0002262 0 0 0 24.763672 46.974609 C 32.447288 47.050254 39.947282 43.111778 44.052734 36 C 45.861322 32.867975 46.78872 29.467685 46.951172 26.095703 A 2.0002 2.0002 0 0 0 45.021484 23.972656 z" fill="#71fff6"/></svg>
