<?xml version="1.0" encoding="utf-8"?>
<svg xmlns="http://www.w3.org/2000/svg" viewBox="0 0 64 64" fill="#f3672a"><path d="M 37.390625 0 C 33.870625 -5.9211895e-16 31 2.870625 31 6.390625 L 31 10 L 30.880859 10 C 26.800859 10 23.309453 12.46 21.939453 16 L 17.849609 16 C 12.969609 16 9 19.990625 9 24.890625 L 9 28 L 8.4609375 28 C 6.0009375 28 4 30.040781 4 32.550781 L 4 33 L 3.6191406 33 C 1.6191406 33 -5.9211895e-16 34.649688 0 36.679688 L 0 37.320312 C 0 39.350313 1.6191406 41 3.6191406 41 L 4 41 L 4 42.449219 C 4 44.959219 6.0009375 47 8.4609375 47 L 9 47 L 9 51.109375 C 9 56.009375 12.969609 60 17.849609 60 L 46.150391 60 C 51.030391 60 55 56.009375 55 51.109375 L 55 47 L 55.589844 47 C 58.019844 47 60 44.959219 60 42.449219 L 60 41 L 60.490234 41 C 62.490234 41 64.109375 39.350312 64.109375 37.320312 L 64.109375 36.679688 C 64.109375 34.649687 62.490234 33 60.490234 33 L 60 33 L 60 32.550781 C 60 30.040781 58.019844 28 55.589844 28 L 55 28 L 55 24.890625 C 55 19.990625 51.030391 16 46.150391 16 L 42.169922 16 C 40.809922 12.46 37.310469 10 33.230469 10 L 33 10 L 33 6.390625 C 33 3.970625 34.970625 2 37.390625 2 L 37.609375 2 C 39.689375 2 41.440859 3.4603906 41.880859 5.4003906 C 40.760859 5.9903906 40 7.16 40 8.5 C 40 10.43 41.57 12 43.5 12 C 45.43 12 47 10.43 47 8.5 C 47 6.69 45.619609 5.1895312 43.849609 5.0195312 C 43.219609 2.1595313 40.659375 0 37.609375 0 L 37.390625 0 z M 43.5 7 C 43.59 7 43.679531 7.0092969 43.769531 7.0292969 C 44.469531 7.1492969 45 7.76 45 8.5 C 45 9.33 44.33 10 43.5 10 C 42.67 10 42 9.33 42 8.5 C 42 8.01 42.229609 7.5705469 42.599609 7.3105469 L 42.609375 7.3105469 C 42.734375 7.2105469 42.875391 7.1325781 43.025391 7.0800781 C 43.175391 7.0275781 43.335 7 43.5 7 z M 30.880859 12 L 33.230469 12 C 36.170469 12 38.730703 13.61 39.970703 16 L 24.140625 16 C 25.380625 13.61 27.940859 12 30.880859 12 z M 17.849609 17.980469 L 46.150391 17.980469 C 49.930391 17.980469 53 21.080625 53 24.890625 L 53 28 L 53 30.009766 L 53 35 L 53 39 L 53 44.990234 L 53 47 L 53 51.109375 C 53 54.919375 49.930391 58.019531 46.150391 58.019531 L 17.849609 58.019531 C 14.069609 58.019531 11 54.919375 11 51.109375 L 11 41 L 11 30.009766 L 11 28 L 11 24.890625 C 11 21.080625 14.069609 17.980469 17.849609 17.980469 z M 19.818359 20.998047 C 19.337109 20.998047 18.855 21.174297 18.5 21.529297 L 16.539062 23.490234 C 15.819062 24.210234 15.819062 25.389141 16.539062 26.119141 L 18.410156 27.990234 L 16.539062 29.859375 C 15.819062 30.589375 15.819062 31.770234 16.539062 32.490234 L 18.5 34.460938 C 18.87 34.820937 19.340313 35 19.820312 35 C 20.290312 35 20.770859 34.820938 21.130859 34.460938 L 23 32.580078 L 24.869141 34.460938 C 25.589141 35.180937 26.77 35.180937 27.5 34.460938 L 29.460938 32.490234 C 30.180937 31.770234 30.180937 30.589375 29.460938 29.859375 L 27.589844 27.990234 L 29.460938 26.119141 C 30.180937 25.389141 30.180937 24.210234 29.460938 23.490234 L 27.5 21.529297 C 26.8 20.819297 25.569141 20.819297 24.869141 21.529297 L 23 23.400391 L 21.130859 21.529297 C 20.780859 21.174297 20.299609 20.998047 19.818359 20.998047 z M 40.912109 22.025391 C 37.533109 22.325391 34.984375 25.108 34.984375 28.5 C 34.984375 32.084 37.904187 35 41.492188 35 C 44.390187 35 46.965906 33.055484 47.753906 30.271484 C 47.903906 29.740484 47.595453 29.187109 47.064453 29.037109 C 46.533453 28.887109 45.979125 29.194562 45.828125 29.726562 C 45.283125 31.652563 43.500188 32.998047 41.492188 32.998047 C 39.006187 32.998047 36.984375 30.979047 36.984375 28.498047 C 36.984375 26.189047 38.786891 24.221578 41.087891 24.017578 C 41.637891 23.969578 42.045094 23.483594 41.996094 22.933594 C 41.948094 22.383594 41.479109 21.988391 40.912109 22.025391 z M 19.820312 23.039062 L 23 26.230469 L 26.179688 23.039062 L 27.939453 24.800781 L 24.759766 27.990234 L 27.939453 31.179688 L 26.179688 32.939453 L 23 29.75 L 19.820312 32.939453 L 18.060547 31.179688 L 21.240234 27.990234 L 18.060547 24.800781 L 19.820312 23.039062 z M 44.904297 23.265625 C 44.649547 23.28975 44.404516 23.410047 44.228516 23.623047 C 43.877516 24.049047 43.937281 24.67925 44.363281 25.03125 C 44.842281 25.42625 45.228766 25.906078 45.509766 26.455078 C 45.686766 26.800078 46.036391 27 46.400391 27 C 46.554391 27 46.708516 26.963625 46.853516 26.890625 C 47.345516 26.638625 47.540062 26.035922 47.289062 25.544922 C 46.883062 24.751922 46.326719 24.060234 45.636719 23.490234 C 45.423719 23.314734 45.159047 23.2415 44.904297 23.265625 z M 8.4609375 30.009766 L 9 30.009766 L 9 33 L 9 41 L 9 44.990234 L 8.4609375 44.990234 C 7.1009375 44.990234 6 43.849219 6 42.449219 L 6 41 L 6 39 L 6 35 L 6 33 L 6 32.550781 C 6 31.150781 7.1009375 30.009766 8.4609375 30.009766 z M 55 30.009766 L 55.589844 30.009766 C 56.919844 30.009766 58 31.150781 58 32.550781 L 58 33 L 58 35 L 58 39 L 58 41 L 58 42.449219 C 58 43.849219 56.919844 44.990234 55.589844 44.990234 L 55 44.990234 L 55 30.009766 z M 3.6191406 35 L 4 35 L 4 39 L 3.6191406 39 C 2.7291406 39 2 38.250313 2 37.320312 L 2 36.679688 C 2 35.749688 2.7291406 35 3.6191406 35 z M 60 35 L 60.490234 35 C 61.380234 35 62.109375 35.749687 62.109375 36.679688 L 62.109375 37.320312 C 62.109375 38.250312 61.380234 39 60.490234 39 L 60 39 L 60 35 z M 32.005859 37.998047 C 31.750859 37.998047 31.495781 38.094062 31.300781 38.289062 L 27.080078 42.490234 L 22.859375 38.289062 C 22.469375 37.909062 21.839219 37.909063 21.449219 38.289062 L 15.289062 44.419922 C 14.909062 44.799922 14.899531 45.410781 15.269531 45.800781 L 17.720703 48.460938 C 17.900703 48.660938 18.159688 48.769297 18.429688 48.779297 C 18.719687 48.769297 18.970156 48.680234 19.160156 48.490234 L 22.150391 45.509766 L 26.380859 49.710938 C 26.770859 50.100938 27.399063 50.090937 27.789062 49.710938 L 32.009766 45.509766 L 36.220703 49.710938 C 36.420703 49.900937 36.669688 50 36.929688 50 C 37.189687 50 37.440625 49.900938 37.640625 49.710938 L 41.849609 45.509766 L 44.839844 48.490234 C 45.029844 48.680234 45.290547 48.769297 45.560547 48.779297 C 45.840547 48.769297 46.089297 48.660938 46.279297 48.460938 L 48.730469 45.800781 C 49.100469 45.410781 49.090937 44.799922 48.710938 44.419922 L 42.560547 38.289062 C 42.170547 37.899062 41.540391 37.899062 41.150391 38.289062 L 36.929688 42.490234 L 32.710938 38.289062 C 32.515937 38.094062 32.260859 37.998047 32.005859 37.998047 z M 22.150391 40.410156 L 26.380859 44.609375 C 26.770859 44.999375 27.399062 44.999375 27.789062 44.609375 L 32.009766 40.410156 L 36.220703 44.609375 C 36.610703 44.999375 37.250625 44.999375 37.640625 44.609375 L 41.849609 40.410156 L 46.609375 45.150391 L 45.519531 46.339844 L 42.560547 43.390625 C 42.170547 43.000625 41.540391 43.000625 41.150391 43.390625 L 36.929688 47.589844 L 32.710938 43.390625 C 32.520938 43.200625 32.259766 43.099609 32.009766 43.099609 C 31.749766 43.099609 31.500781 43.200625 31.300781 43.390625 L 27.080078 47.589844 L 22.859375 43.390625 C 22.469375 43.000625 21.839219 43.000625 21.449219 43.390625 L 18.480469 46.339844 L 17.390625 45.150391 L 22.150391 40.410156 z M 17 52 C 16.45 52 16 52.440234 16 52.990234 L 16 54.980469 C 16 55.520469 16.45 55.970703 17 55.970703 C 17.55 55.970703 18 55.520469 18 54.980469 L 18 52.990234 C 18 52.440234 17.55 52 17 52 z M 22 52 C 21.45 52 21 52.440234 21 52.990234 L 21 54.980469 C 21 55.520469 21.45 55.970703 22 55.970703 C 22.55 55.970703 23 55.520469 23 54.980469 L 23 52.990234 C 23 52.440234 22.55 52 22 52 z M 27 52 C 26.45 52 26 52.440234 26 52.990234 L 26 54.980469 C 26 55.520469 26.45 55.970703 27 55.970703 C 27.55 55.970703 28 55.520469 28 54.980469 L 28 52.990234 C 28 52.440234 27.55 52 27 52 z M 32 52 C 31.45 52 31 52.440234 31 52.990234 L 31 54.980469 C 31 55.520469 31.45 55.970703 32 55.970703 C 32.55 55.970703 33 55.520469 33 54.980469 L 33 52.990234 C 33 52.440234 32.55 52 32 52 z M 37 52 C 36.45 52 36 52.440234 36 52.990234 L 36 54.980469 C 36 55.520469 36.45 55.970703 37 55.970703 C 37.55 55.970703 38 55.520469 38 54.980469 L 38 52.990234 C 38 52.440234 37.55 52 37 52 z M 42 52 C 41.45 52 41 52.440234 41 52.990234 L 41 54.980469 C 41 55.520469 41.45 55.970703 42 55.970703 C 42.55 55.970703 43 55.520469 43 54.980469 L 43 52.990234 C 43 52.440234 42.55 52 42 52 z M 47 52 C 46.45 52 46 52.440234 46 52.990234 L 46 54.980469 C 46 55.520469 46.45 55.970703 47 55.970703 C 47.55 55.970703 48 55.520469 48 54.980469 L 48 52.990234 C 48 52.440234 47.55 52 47 52 z" fill="#f3672a"/></svg>
